G04*
G04 #@! TF.GenerationSoftware,Altium Limited,Altium Designer,21.0.8 (223)*
G04*
G04 Layer_Physical_Order=2*
G04 Layer_Color=16711680*
%FSLAX25Y25*%
%MOIN*%
G70*
G04*
G04 #@! TF.SameCoordinates,DCFDD46B-96D2-4464-8150-C36015641F01*
G04*
G04*
G04 #@! TF.FilePolarity,Positive*
G04*
G01*
G75*
%ADD10C,0.01968*%
%ADD12C,0.02362*%
%ADD36C,0.01181*%
%ADD37C,0.01575*%
%ADD38C,0.06800*%
%ADD39R,0.06800X0.06800*%
%ADD40C,0.06693*%
%ADD41C,0.01968*%
%ADD42C,0.02362*%
%ADD43C,0.03150*%
G36*
X277401Y318624D02*
X280968Y317914D01*
X284449Y316859D01*
X287809Y315467D01*
X291017Y313752D01*
X294041Y311732D01*
X296852Y309424D01*
X299424Y306853D01*
X301732Y304041D01*
X303752Y301017D01*
X305467Y297809D01*
X306859Y294449D01*
X307914Y290968D01*
X308624Y287401D01*
X308980Y283782D01*
X308980Y281963D01*
X308980Y38145D01*
X308980Y36321D01*
X308623Y32691D01*
X307911Y29113D01*
X306852Y25622D01*
X305456Y22252D01*
X303737Y19036D01*
X301710Y16003D01*
X299396Y13183D01*
X296817Y10604D01*
X293997Y8290D01*
X290965Y6263D01*
X287748Y4543D01*
X284378Y3148D01*
X280887Y2089D01*
X277309Y1377D01*
X273679Y1020D01*
X271855Y1020D01*
X38240D01*
X36411Y1020D01*
X32772Y1378D01*
X29185Y2091D01*
X25686Y3153D01*
X22307Y4552D01*
X19082Y6276D01*
X16041Y8308D01*
X13214Y10628D01*
X10628Y13214D01*
X8308Y16041D01*
X6276Y19082D01*
X4552Y22307D01*
X3153Y25686D01*
X2091Y29185D01*
X1378Y32772D01*
X1020Y36411D01*
X1020Y38240D01*
X1020Y281760D01*
Y283589D01*
X1378Y287228D01*
X2091Y290815D01*
X3153Y294314D01*
X4552Y297693D01*
X6276Y300918D01*
X8308Y303959D01*
X10628Y306786D01*
X13214Y309372D01*
X16041Y311692D01*
X19082Y313723D01*
X22307Y315447D01*
X25686Y316847D01*
X29185Y317909D01*
X32772Y318622D01*
X36411Y318980D01*
X38240Y318980D01*
X271963Y318981D01*
X273782Y318981D01*
X277401Y318624D01*
D02*
G37*
%LPC*%
G36*
X70500Y307698D02*
Y306274D01*
X71924D01*
X71869Y306548D01*
X71431Y307205D01*
X70774Y307643D01*
X70500Y307698D01*
D02*
G37*
G36*
X69500D02*
X69226Y307643D01*
X68569Y307205D01*
X68131Y306548D01*
X68076Y306274D01*
X69500D01*
Y307698D01*
D02*
G37*
G36*
X50000Y306924D02*
Y305500D01*
X51424D01*
X51369Y305774D01*
X50931Y306431D01*
X50274Y306869D01*
X50000Y306924D01*
D02*
G37*
G36*
X49000D02*
X48726Y306869D01*
X48069Y306431D01*
X47631Y305774D01*
X47576Y305500D01*
X49000D01*
Y306924D01*
D02*
G37*
G36*
X71924Y305274D02*
X70500D01*
Y303851D01*
X70774Y303905D01*
X71431Y304344D01*
X71869Y305000D01*
X71924Y305274D01*
D02*
G37*
G36*
X69500D02*
X68076D01*
X68131Y305000D01*
X68569Y304344D01*
X69226Y303905D01*
X69500Y303851D01*
Y305274D01*
D02*
G37*
G36*
X51424Y304500D02*
X50000D01*
Y303076D01*
X50274Y303131D01*
X50931Y303569D01*
X51369Y304226D01*
X51424Y304500D01*
D02*
G37*
G36*
X49000D02*
X47576D01*
X47631Y304226D01*
X48069Y303569D01*
X48726Y303131D01*
X49000Y303076D01*
Y304500D01*
D02*
G37*
G36*
X184400Y304400D02*
X180500D01*
Y300500D01*
X184400D01*
Y304400D01*
D02*
G37*
G36*
X170500Y304372D02*
Y300500D01*
X174372D01*
X174287Y301149D01*
X173843Y302219D01*
X173138Y303138D01*
X172219Y303843D01*
X171149Y304287D01*
X170500Y304372D01*
D02*
G37*
G36*
X160500D02*
Y300500D01*
X164372D01*
X164287Y301149D01*
X163843Y302219D01*
X163138Y303138D01*
X162219Y303843D01*
X161149Y304287D01*
X160500Y304372D01*
D02*
G37*
G36*
X150500D02*
Y300500D01*
X154372D01*
X154287Y301149D01*
X153843Y302219D01*
X153138Y303138D01*
X152219Y303843D01*
X151149Y304287D01*
X150500Y304372D01*
D02*
G37*
G36*
X140500D02*
Y300500D01*
X144372D01*
X144287Y301149D01*
X143843Y302219D01*
X143138Y303138D01*
X142219Y303843D01*
X141149Y304287D01*
X140500Y304372D01*
D02*
G37*
G36*
X130500D02*
Y300500D01*
X134372D01*
X134287Y301149D01*
X133843Y302219D01*
X133138Y303138D01*
X132219Y303843D01*
X131149Y304287D01*
X130500Y304372D01*
D02*
G37*
G36*
X120500D02*
Y300500D01*
X124372D01*
X124287Y301149D01*
X123843Y302219D01*
X123138Y303138D01*
X122219Y303843D01*
X121149Y304287D01*
X120500Y304372D01*
D02*
G37*
G36*
X169500D02*
X168851Y304287D01*
X167781Y303843D01*
X166862Y303138D01*
X166157Y302219D01*
X165713Y301149D01*
X165628Y300500D01*
X169500D01*
Y304372D01*
D02*
G37*
G36*
X159500D02*
X158851Y304287D01*
X157781Y303843D01*
X156862Y303138D01*
X156157Y302219D01*
X155713Y301149D01*
X155628Y300500D01*
X159500D01*
Y304372D01*
D02*
G37*
G36*
X149500D02*
X148851Y304287D01*
X147781Y303843D01*
X146862Y303138D01*
X146157Y302219D01*
X145713Y301149D01*
X145628Y300500D01*
X149500D01*
Y304372D01*
D02*
G37*
G36*
X139500D02*
X138851Y304287D01*
X137781Y303843D01*
X136862Y303138D01*
X136157Y302219D01*
X135713Y301149D01*
X135628Y300500D01*
X139500D01*
Y304372D01*
D02*
G37*
G36*
X129500D02*
X128851Y304287D01*
X127781Y303843D01*
X126862Y303138D01*
X126157Y302219D01*
X125713Y301149D01*
X125628Y300500D01*
X129500D01*
Y304372D01*
D02*
G37*
G36*
X119500D02*
X118851Y304287D01*
X117781Y303843D01*
X116862Y303138D01*
X116157Y302219D01*
X115713Y301149D01*
X115628Y300500D01*
X119500D01*
Y304372D01*
D02*
G37*
G36*
X179500Y304400D02*
X175600D01*
Y300500D01*
X179500D01*
Y304400D01*
D02*
G37*
G36*
X83281Y300097D02*
Y298673D01*
X84704D01*
X84650Y298947D01*
X84211Y299604D01*
X83555Y300042D01*
X83281Y300097D01*
D02*
G37*
G36*
X82281D02*
X82006Y300042D01*
X81350Y299604D01*
X80911Y298947D01*
X80857Y298673D01*
X82281D01*
Y300097D01*
D02*
G37*
G36*
X174372Y299500D02*
X170000D01*
X165628D01*
X165713Y298851D01*
X166157Y297781D01*
X166829Y296905D01*
X166761Y296566D01*
X166707Y296405D01*
X163293D01*
X163239Y296566D01*
X163171Y296905D01*
X163843Y297781D01*
X164287Y298851D01*
X164372Y299500D01*
X160000D01*
X155628D01*
X155713Y298851D01*
X156157Y297781D01*
X156829Y296905D01*
X156761Y296566D01*
X156707Y296405D01*
X153293D01*
X153239Y296566D01*
X153171Y296905D01*
X153843Y297781D01*
X154287Y298851D01*
X154372Y299500D01*
X150000D01*
X145628D01*
X145713Y298851D01*
X146157Y297781D01*
X146829Y296905D01*
X146761Y296566D01*
X146707Y296405D01*
X145000D01*
X144462Y296298D01*
X144007Y295993D01*
X141800Y293787D01*
X141093Y294080D01*
X140000Y294223D01*
X138907Y294080D01*
X137888Y293658D01*
X137013Y292986D01*
X136342Y292112D01*
X135920Y291093D01*
X135776Y290000D01*
X135920Y288907D01*
X136342Y287888D01*
X137013Y287014D01*
X137888Y286342D01*
X138907Y285920D01*
X140000Y285776D01*
X141093Y285920D01*
X142112Y286342D01*
X142987Y287014D01*
X143658Y287888D01*
X144080Y288907D01*
X144223Y290000D01*
X144080Y291093D01*
X143787Y291800D01*
X145582Y293595D01*
X147029D01*
X147190Y293122D01*
X147013Y292986D01*
X146342Y292112D01*
X145920Y291093D01*
X145776Y290000D01*
X145920Y288907D01*
X146213Y288200D01*
X143988Y285975D01*
X143684Y285520D01*
X143577Y284982D01*
Y226815D01*
X143115Y226623D01*
X90402Y279337D01*
X90325Y279722D01*
X89803Y280503D01*
X89022Y281025D01*
X88100Y281208D01*
X87178Y281025D01*
X86397Y280503D01*
X85875Y279722D01*
X85691Y278800D01*
X85875Y277878D01*
X86397Y277097D01*
X87178Y276575D01*
X87563Y276498D01*
X140416Y223646D01*
Y177054D01*
X140029Y176736D01*
X139700Y176802D01*
X139683Y176799D01*
X80764Y235718D01*
X80308Y236022D01*
X79770Y236129D01*
X52568D01*
X52398Y236629D01*
X52948Y237052D01*
X53611Y237915D01*
X54027Y238921D01*
X54169Y240000D01*
X54027Y241079D01*
X53611Y242085D01*
X52948Y242948D01*
X52085Y243611D01*
X51079Y244027D01*
X50000Y244169D01*
X48921Y244027D01*
X47915Y243611D01*
X47052Y242948D01*
X46389Y242085D01*
X45973Y241079D01*
X45831Y240000D01*
X45973Y238921D01*
X46389Y237915D01*
X47052Y237052D01*
X47602Y236629D01*
X47432Y236129D01*
X44724D01*
X44187Y236022D01*
X43731Y235718D01*
X41759Y233746D01*
X41079Y234027D01*
X40000Y234170D01*
X38921Y234027D01*
X37915Y233611D01*
X37052Y232948D01*
X36389Y232085D01*
X35973Y231079D01*
X35831Y230000D01*
X35973Y228921D01*
X36389Y227915D01*
X37052Y227052D01*
X37915Y226389D01*
X38921Y225973D01*
X40000Y225831D01*
X41079Y225973D01*
X42085Y226389D01*
X42948Y227052D01*
X43611Y227915D01*
X44027Y228921D01*
X44170Y230000D01*
X44027Y231079D01*
X43746Y231759D01*
X45306Y233319D01*
X46771D01*
X46953Y232820D01*
X46389Y232085D01*
X45973Y231079D01*
X45831Y230000D01*
X45973Y228921D01*
X46389Y227915D01*
X47052Y227052D01*
X47602Y226629D01*
X47432Y226129D01*
X44724D01*
X44187Y226022D01*
X43731Y225718D01*
X41759Y223746D01*
X41079Y224027D01*
X40000Y224169D01*
X38921Y224027D01*
X37915Y223611D01*
X37052Y222948D01*
X36389Y222085D01*
X35973Y221079D01*
X35831Y220000D01*
X35973Y218921D01*
X36389Y217915D01*
X37052Y217052D01*
X37915Y216389D01*
X38921Y215973D01*
X40000Y215830D01*
X41079Y215973D01*
X42085Y216389D01*
X42948Y217052D01*
X43611Y217915D01*
X44027Y218921D01*
X44170Y220000D01*
X44027Y221079D01*
X43746Y221759D01*
X45306Y223320D01*
X46771D01*
X46953Y222819D01*
X46389Y222085D01*
X45973Y221079D01*
X45831Y220000D01*
X45973Y218921D01*
X46389Y217915D01*
X47052Y217052D01*
X47602Y216629D01*
X47432Y216129D01*
X44724D01*
X44187Y216022D01*
X43731Y215718D01*
X41759Y213746D01*
X41079Y214027D01*
X40000Y214170D01*
X38921Y214027D01*
X37915Y213611D01*
X37052Y212948D01*
X36389Y212085D01*
X35973Y211079D01*
X35831Y210000D01*
X35973Y208921D01*
X36389Y207915D01*
X37052Y207052D01*
X37915Y206389D01*
X38921Y205973D01*
X40000Y205831D01*
X41079Y205973D01*
X42085Y206389D01*
X42948Y207052D01*
X43611Y207915D01*
X44027Y208921D01*
X44170Y210000D01*
X44027Y211079D01*
X43746Y211759D01*
X45306Y213319D01*
X46771D01*
X46953Y212820D01*
X46389Y212085D01*
X45973Y211079D01*
X45831Y210000D01*
X45973Y208921D01*
X46389Y207915D01*
X47052Y207052D01*
X47915Y206389D01*
X48921Y205973D01*
X50000Y205831D01*
X51079Y205973D01*
X52085Y206389D01*
X52948Y207052D01*
X53611Y207915D01*
X53892Y208595D01*
X83118D01*
X127896Y163817D01*
X127893Y163800D01*
X128046Y163032D01*
X128481Y162381D01*
X129132Y161946D01*
X129900Y161793D01*
X130668Y161946D01*
X131319Y162381D01*
X131754Y163032D01*
X131827Y163397D01*
X132379Y163797D01*
X132400Y163793D01*
X133168Y163946D01*
X133819Y164381D01*
X134254Y165032D01*
X134407Y165800D01*
X134254Y166568D01*
X133819Y167219D01*
X133168Y167654D01*
X132615Y167764D01*
X132493Y167957D01*
X132768Y168457D01*
X135113D01*
X135122Y168442D01*
X135773Y168007D01*
X136541Y167854D01*
X137309Y168007D01*
X137961Y168442D01*
X138396Y169094D01*
X138468Y169455D01*
X138932Y169746D01*
X139700Y169593D01*
X139764Y169606D01*
X140010Y169145D01*
X122659Y151794D01*
X122224Y151143D01*
X122071Y150375D01*
Y143422D01*
X122224Y142654D01*
X122659Y142002D01*
X132281Y132381D01*
X132932Y131946D01*
X133700Y131793D01*
X133717Y131796D01*
X143579Y121934D01*
X91523Y69877D01*
X91131Y69291D01*
X90994Y68600D01*
Y32300D01*
X91131Y31609D01*
X91523Y31023D01*
X95823Y26723D01*
X96409Y26331D01*
X97100Y26194D01*
X108000D01*
X108691Y26331D01*
X109277Y26723D01*
X118642Y36088D01*
X118921Y35973D01*
X120000Y35831D01*
X121079Y35973D01*
X122085Y36389D01*
X122948Y37052D01*
X123611Y37915D01*
X124027Y38921D01*
X124170Y40000D01*
X124027Y41079D01*
X123611Y42085D01*
X122948Y42948D01*
X122085Y43611D01*
X121079Y44027D01*
X120000Y44170D01*
X118921Y44027D01*
X117915Y43611D01*
X117052Y42948D01*
X116389Y42085D01*
X115973Y41079D01*
X115831Y40000D01*
X115973Y38921D01*
X116088Y38642D01*
X107252Y29806D01*
X97848D01*
X94606Y33048D01*
Y67852D01*
X146644Y119889D01*
X147314Y119219D01*
X147769Y118914D01*
X148307Y118807D01*
X153304D01*
X153313Y118793D01*
X153964Y118358D01*
X154733Y118205D01*
X155387Y118335D01*
X155707Y118187D01*
X155902Y118025D01*
X155994Y117567D01*
X156298Y117111D01*
X219127Y54282D01*
X219583Y53978D01*
X220120Y53871D01*
X257432D01*
X257602Y53371D01*
X257052Y52948D01*
X256389Y52085D01*
X255973Y51079D01*
X255831Y50000D01*
X255973Y48921D01*
X256389Y47915D01*
X257052Y47052D01*
X257915Y46389D01*
X258921Y45973D01*
X260000Y45831D01*
X261079Y45973D01*
X262085Y46389D01*
X262948Y47052D01*
X263611Y47915D01*
X264027Y48921D01*
X264170Y50000D01*
X264027Y51079D01*
X263611Y52085D01*
X262948Y52948D01*
X262398Y53371D01*
X262568Y53871D01*
X265276D01*
X265813Y53978D01*
X266269Y54282D01*
X268241Y56254D01*
X268921Y55973D01*
X270000Y55831D01*
X271079Y55973D01*
X272085Y56389D01*
X272948Y57052D01*
X273611Y57915D01*
X274027Y58921D01*
X274169Y60000D01*
X274027Y61079D01*
X273611Y62085D01*
X272948Y62948D01*
X272085Y63611D01*
X271079Y64027D01*
X270000Y64170D01*
X268921Y64027D01*
X267915Y63611D01*
X267052Y62948D01*
X266389Y62085D01*
X265973Y61079D01*
X265830Y60000D01*
X265973Y58921D01*
X266254Y58241D01*
X264694Y56681D01*
X263229D01*
X263047Y57181D01*
X263611Y57915D01*
X264027Y58921D01*
X264170Y60000D01*
X264027Y61079D01*
X263611Y62085D01*
X262948Y62948D01*
X262398Y63371D01*
X262568Y63871D01*
X265276D01*
X265813Y63978D01*
X266269Y64282D01*
X268241Y66254D01*
X268921Y65973D01*
X270000Y65830D01*
X271079Y65973D01*
X272085Y66389D01*
X272948Y67052D01*
X273611Y67915D01*
X274027Y68921D01*
X274169Y70000D01*
X274027Y71079D01*
X273611Y72085D01*
X272948Y72948D01*
X272085Y73611D01*
X271079Y74027D01*
X270000Y74169D01*
X268921Y74027D01*
X267915Y73611D01*
X267052Y72948D01*
X266389Y72085D01*
X265973Y71079D01*
X265830Y70000D01*
X265973Y68921D01*
X266254Y68241D01*
X264694Y66681D01*
X263229D01*
X263047Y67181D01*
X263611Y67915D01*
X264027Y68921D01*
X264170Y70000D01*
X264027Y71079D01*
X263611Y72085D01*
X262948Y72948D01*
X262085Y73611D01*
X261079Y74027D01*
X260000Y74169D01*
X258921Y74027D01*
X257915Y73611D01*
X257052Y72948D01*
X256389Y72085D01*
X256107Y71405D01*
X222384D01*
X194078Y99711D01*
Y99964D01*
X193971Y100502D01*
X193667Y100957D01*
X165322Y129302D01*
X165326Y129319D01*
X165173Y130087D01*
X164738Y130738D01*
X164087Y131173D01*
X163319Y131326D01*
X162551Y131173D01*
X161952Y130773D01*
X161772Y130719D01*
X161387Y130719D01*
X161273Y130891D01*
X160551Y131373D01*
X160200Y131443D01*
Y129318D01*
X159700D01*
Y128818D01*
X157576D01*
X157645Y128467D01*
X158127Y127746D01*
X158522Y127482D01*
Y126881D01*
X158281Y126719D01*
X157846Y126068D01*
X157693Y125300D01*
X157264Y124894D01*
X156950Y124957D01*
X156182Y124804D01*
X155531Y124369D01*
X155096Y123718D01*
X154943Y122950D01*
X154998Y122677D01*
X154733Y122220D01*
X153964Y122067D01*
X153313Y121632D01*
X153304Y121617D01*
X148889D01*
X148347Y122160D01*
X177833Y151646D01*
X178459D01*
X178997Y151753D01*
X179175Y151872D01*
X179679D01*
X179840Y151632D01*
X180491Y151197D01*
X181259Y151044D01*
X182027Y151197D01*
X182678Y151632D01*
X183113Y152283D01*
X183266Y153051D01*
X183113Y153819D01*
X182678Y154470D01*
X182027Y154905D01*
X181259Y155058D01*
X180491Y154905D01*
X180157Y154682D01*
X179041D01*
X169264Y164459D01*
X169267Y164476D01*
X169114Y165244D01*
X168679Y165895D01*
X168028Y166331D01*
X167541Y166428D01*
X167376Y166970D01*
X229001Y228595D01*
X256107D01*
X256389Y227915D01*
X257052Y227052D01*
X257915Y226389D01*
X258921Y225973D01*
X260000Y225831D01*
X261079Y225973D01*
X262085Y226389D01*
X262948Y227052D01*
X263611Y227915D01*
X264027Y228921D01*
X264170Y230000D01*
X264027Y231079D01*
X263611Y232085D01*
X263047Y232820D01*
X263229Y233319D01*
X264724D01*
X265262Y233426D01*
X265718Y233731D01*
X268241Y236254D01*
X268921Y235973D01*
X270000Y235830D01*
X271079Y235973D01*
X272085Y236389D01*
X272948Y237052D01*
X273611Y237915D01*
X274027Y238921D01*
X274169Y240000D01*
X274027Y241079D01*
X273611Y242085D01*
X272948Y242948D01*
X272085Y243611D01*
X271079Y244027D01*
X270000Y244169D01*
X268921Y244027D01*
X267915Y243611D01*
X267052Y242948D01*
X266389Y242085D01*
X265973Y241079D01*
X265830Y240000D01*
X265973Y238921D01*
X266254Y238241D01*
X264142Y236129D01*
X262568D01*
X262398Y236629D01*
X262948Y237052D01*
X263611Y237915D01*
X264027Y238921D01*
X264170Y240000D01*
X264027Y241079D01*
X263611Y242085D01*
X263047Y242819D01*
X263229Y243320D01*
X264724D01*
X265262Y243426D01*
X265718Y243731D01*
X268241Y246254D01*
X268921Y245973D01*
X270000Y245830D01*
X271079Y245973D01*
X272085Y246389D01*
X272948Y247052D01*
X273611Y247915D01*
X274027Y248921D01*
X274169Y250000D01*
X274027Y251079D01*
X273611Y252085D01*
X272948Y252948D01*
X272085Y253611D01*
X271079Y254027D01*
X270000Y254170D01*
X268921Y254027D01*
X267915Y253611D01*
X267052Y252948D01*
X266389Y252085D01*
X265973Y251079D01*
X265830Y250000D01*
X265973Y248921D01*
X266254Y248241D01*
X264142Y246129D01*
X262568D01*
X262398Y246629D01*
X262948Y247052D01*
X263611Y247915D01*
X264027Y248921D01*
X264170Y250000D01*
X264027Y251079D01*
X263611Y252085D01*
X262948Y252948D01*
X262085Y253611D01*
X261079Y254027D01*
X260000Y254170D01*
X258921Y254027D01*
X257915Y253611D01*
X257052Y252948D01*
X256389Y252085D01*
X256107Y251405D01*
X235177D01*
X234639Y251298D01*
X234183Y250993D01*
X180976Y197786D01*
X180433Y197951D01*
X180369Y198274D01*
X179931Y198931D01*
X179274Y199369D01*
X179000Y199424D01*
Y197500D01*
X178500D01*
Y197000D01*
X176576D01*
X176631Y196726D01*
X177069Y196069D01*
X177726Y195631D01*
X178049Y195567D01*
X178214Y195024D01*
X159533Y176343D01*
X159228Y175887D01*
X159121Y175350D01*
Y174408D01*
X158881Y174247D01*
X158446Y173596D01*
X158293Y172828D01*
X158446Y172060D01*
X158817Y171504D01*
X158881Y171409D01*
X158744Y170899D01*
X158516Y170747D01*
X158081Y170096D01*
X157928Y169328D01*
X158081Y168560D01*
X158516Y167909D01*
X159167Y167474D01*
X159935Y167321D01*
X160704Y167474D01*
X161182Y167794D01*
X161436Y167869D01*
X161809Y167688D01*
X162035Y167350D01*
X162290Y166919D01*
X161855Y166268D01*
X161702Y165500D01*
X161855Y164732D01*
X162290Y164081D01*
X162942Y163646D01*
X163709Y163493D01*
X164478Y163646D01*
X164858Y163900D01*
X165406Y163708D01*
X165841Y163057D01*
X166492Y162622D01*
X167260Y162469D01*
X167277Y162472D01*
X175981Y153768D01*
X146194Y123981D01*
X146063Y124007D01*
X145577Y123910D01*
X135704Y133783D01*
X135707Y133800D01*
X135704Y133817D01*
X140111Y138224D01*
X140531Y138000D01*
X142000D01*
Y139469D01*
X141776Y139889D01*
X148534Y146648D01*
X148839Y147103D01*
X148946Y147641D01*
Y180558D01*
X148960Y180568D01*
X149395Y181219D01*
X149548Y181987D01*
X149395Y182755D01*
X148960Y183406D01*
X148309Y183841D01*
X147541Y183994D01*
X146887Y183864D01*
X146387Y184139D01*
Y284400D01*
X148200Y286213D01*
X148907Y285920D01*
X150000Y285776D01*
X151093Y285920D01*
X151860Y286238D01*
X152379Y286012D01*
X152426Y285953D01*
X152503Y285568D01*
X152942Y284912D01*
X153598Y284473D01*
X153872Y284419D01*
Y286342D01*
X154372D01*
Y286842D01*
X156296D01*
X156241Y287117D01*
X155803Y287773D01*
X155146Y288211D01*
X154395Y288361D01*
X154311Y288389D01*
X154029Y288786D01*
X154080Y288907D01*
X154224Y290000D01*
X154080Y291093D01*
X153658Y292112D01*
X152987Y292986D01*
X152810Y293122D01*
X152971Y293595D01*
X157029D01*
X157190Y293122D01*
X157013Y292986D01*
X156342Y292112D01*
X155920Y291093D01*
X155777Y290000D01*
X155920Y288907D01*
X156342Y287888D01*
X157013Y287014D01*
X157888Y286342D01*
X158595Y286050D01*
Y189456D01*
X153130Y183991D01*
X153113Y183994D01*
X152345Y183841D01*
X151694Y183406D01*
X151259Y182755D01*
X151106Y181987D01*
X151259Y181219D01*
X151632Y180660D01*
X151687Y180096D01*
X151539Y179997D01*
X151104Y179346D01*
X150952Y178578D01*
X151104Y177810D01*
X151539Y177158D01*
X151625Y177101D01*
X151608Y176511D01*
X151246Y175968D01*
X151093Y175200D01*
X151246Y174432D01*
X151681Y173781D01*
X152332Y173346D01*
X153100Y173193D01*
X153868Y173346D01*
X154519Y173781D01*
X154954Y174432D01*
X155087Y175100D01*
X170993Y191007D01*
X171298Y191462D01*
X171364Y191793D01*
X172962Y193391D01*
X173266Y193847D01*
X173373Y194385D01*
Y284809D01*
X173618Y284986D01*
X173695Y285069D01*
X174374Y285626D01*
X175143Y286563D01*
X175715Y287633D01*
X175809Y287945D01*
X176309Y287969D01*
X176342Y287888D01*
X177014Y287014D01*
X177888Y286342D01*
X178907Y285920D01*
X180000Y285776D01*
X181093Y285920D01*
X182112Y286342D01*
X182986Y287014D01*
X183658Y287888D01*
X183784Y288194D01*
X229652D01*
X235504Y282341D01*
X235546Y282132D01*
X235981Y281481D01*
X236632Y281046D01*
X237400Y280893D01*
X238168Y281046D01*
X238819Y281481D01*
X239254Y282132D01*
X239407Y282900D01*
X239254Y283668D01*
X238819Y284319D01*
X238265Y284689D01*
X231677Y291277D01*
X231091Y291669D01*
X230400Y291806D01*
X183784D01*
X183658Y292112D01*
X182986Y292986D01*
X182112Y293658D01*
X181093Y294080D01*
X180000Y294223D01*
X178907Y294080D01*
X177888Y293658D01*
X177014Y292986D01*
X176342Y292112D01*
X176309Y292031D01*
X175809Y292055D01*
X175715Y292367D01*
X175143Y293437D01*
X174374Y294374D01*
X173437Y295143D01*
X172407Y295693D01*
X172357Y295818D01*
X172336Y296247D01*
X173138Y296862D01*
X173843Y297781D01*
X174287Y298851D01*
X174372Y299500D01*
D02*
G37*
G36*
X84704Y297673D02*
X83281D01*
Y296250D01*
X83555Y296304D01*
X84211Y296743D01*
X84650Y297399D01*
X84704Y297673D01*
D02*
G37*
G36*
X82281D02*
X80857D01*
X80911Y297399D01*
X81350Y296743D01*
X82006Y296304D01*
X82281Y296250D01*
Y297673D01*
D02*
G37*
G36*
X144372Y299500D02*
X140500D01*
Y295628D01*
X141149Y295713D01*
X142219Y296157D01*
X143138Y296862D01*
X143843Y297781D01*
X144287Y298851D01*
X144372Y299500D01*
D02*
G37*
G36*
X134372D02*
X130500D01*
Y295628D01*
X131149Y295713D01*
X132219Y296157D01*
X133138Y296862D01*
X133843Y297781D01*
X134287Y298851D01*
X134372Y299500D01*
D02*
G37*
G36*
X124372D02*
X120500D01*
Y295628D01*
X121149Y295713D01*
X122219Y296157D01*
X123138Y296862D01*
X123843Y297781D01*
X124287Y298851D01*
X124372Y299500D01*
D02*
G37*
G36*
X129500D02*
X125628D01*
X125713Y298851D01*
X126157Y297781D01*
X126862Y296862D01*
X127781Y296157D01*
X128851Y295713D01*
X129500Y295628D01*
Y299500D01*
D02*
G37*
G36*
X119500D02*
X115628D01*
X115713Y298851D01*
X116157Y297781D01*
X116862Y296862D01*
X117781Y296157D01*
X118851Y295713D01*
X119500Y295628D01*
Y299500D01*
D02*
G37*
G36*
X139500D02*
X135628D01*
X135713Y298851D01*
X136157Y297781D01*
X136862Y296862D01*
X137781Y296157D01*
X138851Y295713D01*
X139500Y295628D01*
Y299500D01*
D02*
G37*
G36*
X184400D02*
X180500D01*
Y295600D01*
X184400D01*
Y299500D01*
D02*
G37*
G36*
X179500D02*
X175600D01*
Y295600D01*
X179500D01*
Y299500D01*
D02*
G37*
G36*
X63500Y295924D02*
Y294500D01*
X64924D01*
X64869Y294774D01*
X64431Y295431D01*
X63774Y295869D01*
X63500Y295924D01*
D02*
G37*
G36*
X62500D02*
X62226Y295869D01*
X61569Y295431D01*
X61131Y294774D01*
X61076Y294500D01*
X62500D01*
Y295924D01*
D02*
G37*
G36*
X64924Y293500D02*
X63500D01*
Y292076D01*
X63774Y292131D01*
X64431Y292569D01*
X64869Y293226D01*
X64924Y293500D01*
D02*
G37*
G36*
X62500D02*
X61076D01*
X61131Y293226D01*
X61569Y292569D01*
X62226Y292131D01*
X62500Y292076D01*
Y293500D01*
D02*
G37*
G36*
X287520Y303474D02*
X286280D01*
X286181Y303454D01*
X286081D01*
X284864Y303212D01*
X284771Y303173D01*
X284672Y303154D01*
X283526Y302679D01*
X283442Y302623D01*
X283350Y302585D01*
X282318Y301895D01*
X282247Y301824D01*
X282164Y301769D01*
X281286Y300891D01*
X281230Y300808D01*
X281159Y300737D01*
X280470Y299705D01*
X280432Y299612D01*
X280376Y299529D01*
X279901Y298382D01*
X279881Y298284D01*
X279843Y298191D01*
X279601Y296974D01*
Y296874D01*
X279581Y296775D01*
Y295534D01*
X279601Y295436D01*
Y295336D01*
X279843Y294118D01*
X279881Y294026D01*
X279901Y293927D01*
X280376Y292781D01*
X280432Y292697D01*
X280470Y292605D01*
X281159Y291573D01*
X281230Y291502D01*
X281286Y291418D01*
X282164Y290541D01*
X282247Y290485D01*
X282318Y290414D01*
X283350Y289725D01*
X283442Y289686D01*
X283526Y289631D01*
X284672Y289156D01*
X284771Y289136D01*
X284864Y289098D01*
X286081Y288856D01*
X286181D01*
X286280Y288836D01*
X287520D01*
X287619Y288856D01*
X287719D01*
X288936Y289098D01*
X289029Y289136D01*
X289128Y289156D01*
X290274Y289631D01*
X290357Y289686D01*
X290450Y289725D01*
X291482Y290414D01*
X291553Y290485D01*
X291636Y290541D01*
X292514Y291418D01*
X292570Y291502D01*
X292641Y291573D01*
X293330Y292605D01*
X293369Y292697D01*
X293424Y292781D01*
X293899Y293927D01*
X293919Y294026D01*
X293957Y294118D01*
X294199Y295336D01*
Y295436D01*
X294219Y295534D01*
Y296775D01*
X294199Y296874D01*
Y296974D01*
X293957Y298191D01*
X293919Y298284D01*
X293899Y298382D01*
X293424Y299529D01*
X293369Y299612D01*
X293330Y299705D01*
X292641Y300737D01*
X292570Y300808D01*
X292514Y300891D01*
X291636Y301769D01*
X291553Y301824D01*
X291482Y301895D01*
X290450Y302585D01*
X290357Y302623D01*
X290274Y302679D01*
X289128Y303154D01*
X289029Y303173D01*
X288936Y303212D01*
X287719Y303454D01*
X287619D01*
X287520Y303474D01*
D02*
G37*
G36*
X23820Y303370D02*
X22580D01*
X22481Y303351D01*
X22381D01*
X21164Y303109D01*
X21071Y303070D01*
X20972Y303051D01*
X19826Y302576D01*
X19742Y302520D01*
X19650Y302482D01*
X18618Y301792D01*
X18547Y301721D01*
X18463Y301665D01*
X17586Y300788D01*
X17530Y300705D01*
X17459Y300634D01*
X16770Y299602D01*
X16732Y299509D01*
X16676Y299426D01*
X16201Y298279D01*
X16181Y298181D01*
X16143Y298088D01*
X15901Y296871D01*
Y296771D01*
X15881Y296672D01*
Y295431D01*
X15901Y295333D01*
Y295232D01*
X16143Y294015D01*
X16181Y293922D01*
X16201Y293824D01*
X16676Y292678D01*
X16732Y292594D01*
X16770Y292501D01*
X17459Y291470D01*
X17530Y291399D01*
X17586Y291315D01*
X18463Y290438D01*
X18547Y290382D01*
X18618Y290311D01*
X19650Y289622D01*
X19742Y289583D01*
X19826Y289527D01*
X20972Y289053D01*
X21071Y289033D01*
X21164Y288995D01*
X22381Y288752D01*
X22481D01*
X22580Y288733D01*
X23820D01*
X23919Y288752D01*
X24019D01*
X25236Y288995D01*
X25329Y289033D01*
X25428Y289053D01*
X26574Y289527D01*
X26658Y289583D01*
X26750Y289622D01*
X27782Y290311D01*
X27853Y290382D01*
X27937Y290438D01*
X28814Y291315D01*
X28870Y291399D01*
X28941Y291470D01*
X29630Y292501D01*
X29669Y292594D01*
X29724Y292678D01*
X30199Y293824D01*
X30219Y293922D01*
X30257Y294015D01*
X30499Y295232D01*
Y295333D01*
X30519Y295431D01*
Y296672D01*
X30499Y296771D01*
Y296871D01*
X30257Y298088D01*
X30219Y298181D01*
X30199Y298279D01*
X29724Y299426D01*
X29669Y299509D01*
X29630Y299602D01*
X28941Y300634D01*
X28870Y300705D01*
X28814Y300788D01*
X27937Y301665D01*
X27853Y301721D01*
X27782Y301792D01*
X26750Y302482D01*
X26658Y302520D01*
X26574Y302576D01*
X25428Y303051D01*
X25329Y303070D01*
X25236Y303109D01*
X24019Y303351D01*
X23919D01*
X23820Y303370D01*
D02*
G37*
G36*
X130000Y294223D02*
X128907Y294080D01*
X127888Y293658D01*
X127014Y292986D01*
X126342Y292112D01*
X125920Y291093D01*
X125777Y290000D01*
X125920Y288907D01*
X126342Y287888D01*
X127014Y287014D01*
X127888Y286342D01*
X128907Y285920D01*
X130000Y285776D01*
X131093Y285920D01*
X132112Y286342D01*
X132986Y287014D01*
X133658Y287888D01*
X134080Y288907D01*
X134223Y290000D01*
X134080Y291093D01*
X133658Y292112D01*
X132986Y292986D01*
X132112Y293658D01*
X131093Y294080D01*
X130000Y294223D01*
D02*
G37*
G36*
X120000D02*
X118907Y294080D01*
X117888Y293658D01*
X117014Y292986D01*
X116342Y292112D01*
X115920Y291093D01*
X115777Y290000D01*
X115920Y288907D01*
X116342Y287888D01*
X117014Y287014D01*
X117888Y286342D01*
X118907Y285920D01*
X120000Y285776D01*
X121093Y285920D01*
X122112Y286342D01*
X122986Y287014D01*
X123658Y287888D01*
X124080Y288907D01*
X124223Y290000D01*
X124080Y291093D01*
X123658Y292112D01*
X122986Y292986D01*
X122112Y293658D01*
X121093Y294080D01*
X120000Y294223D01*
D02*
G37*
G36*
X156296Y285842D02*
X154872D01*
Y284419D01*
X155146Y284473D01*
X155803Y284912D01*
X156241Y285568D01*
X156296Y285842D01*
D02*
G37*
G36*
X51000Y281924D02*
Y280500D01*
X52424D01*
X52369Y280774D01*
X51931Y281431D01*
X51274Y281869D01*
X51000Y281924D01*
D02*
G37*
G36*
X50000D02*
X49726Y281869D01*
X49069Y281431D01*
X48631Y280774D01*
X48576Y280500D01*
X50000D01*
Y281924D01*
D02*
G37*
G36*
X77000Y281024D02*
Y279600D01*
X78424D01*
X78369Y279874D01*
X77931Y280531D01*
X77274Y280969D01*
X77000Y281024D01*
D02*
G37*
G36*
X76000D02*
X75726Y280969D01*
X75069Y280531D01*
X74631Y279874D01*
X74576Y279600D01*
X76000D01*
Y281024D01*
D02*
G37*
G36*
X52424Y279500D02*
X51000D01*
Y278076D01*
X51274Y278131D01*
X51931Y278569D01*
X52369Y279226D01*
X52424Y279500D01*
D02*
G37*
G36*
X50000D02*
X48576D01*
X48631Y279226D01*
X49069Y278569D01*
X49726Y278131D01*
X50000Y278076D01*
Y279500D01*
D02*
G37*
G36*
X155372Y279424D02*
Y278000D01*
X156796D01*
X156741Y278274D01*
X156303Y278931D01*
X155646Y279369D01*
X155372Y279424D01*
D02*
G37*
G36*
X154372D02*
X154098Y279369D01*
X153442Y278931D01*
X153003Y278274D01*
X152948Y278000D01*
X154372D01*
Y279424D01*
D02*
G37*
G36*
X78424Y278600D02*
X77000D01*
Y277176D01*
X77274Y277231D01*
X77931Y277669D01*
X78369Y278326D01*
X78424Y278600D01*
D02*
G37*
G36*
X76000D02*
X74576D01*
X74631Y278326D01*
X75069Y277669D01*
X75726Y277231D01*
X76000Y277176D01*
Y278600D01*
D02*
G37*
G36*
X156796Y277000D02*
X155372D01*
Y275576D01*
X155646Y275631D01*
X156303Y276069D01*
X156741Y276726D01*
X156796Y277000D01*
D02*
G37*
G36*
X154372D02*
X152948D01*
X153003Y276726D01*
X153442Y276069D01*
X154098Y275631D01*
X154372Y275576D01*
Y277000D01*
D02*
G37*
G36*
X270000Y264170D02*
X268921Y264027D01*
X267915Y263611D01*
X267052Y262948D01*
X266389Y262085D01*
X265973Y261079D01*
X265830Y260000D01*
X265973Y258921D01*
X266389Y257915D01*
X267052Y257052D01*
X267915Y256389D01*
X268921Y255973D01*
X270000Y255831D01*
X271079Y255973D01*
X272085Y256389D01*
X272948Y257052D01*
X273611Y257915D01*
X274027Y258921D01*
X274169Y260000D01*
X274027Y261079D01*
X273611Y262085D01*
X272948Y262948D01*
X272085Y263611D01*
X271079Y264027D01*
X270000Y264170D01*
D02*
G37*
G36*
X260000D02*
X258921Y264027D01*
X257915Y263611D01*
X257052Y262948D01*
X256389Y262085D01*
X255973Y261079D01*
X255831Y260000D01*
X255973Y258921D01*
X256389Y257915D01*
X257052Y257052D01*
X257915Y256389D01*
X258921Y255973D01*
X260000Y255831D01*
X261079Y255973D01*
X262085Y256389D01*
X262948Y257052D01*
X263611Y257915D01*
X264027Y258921D01*
X264170Y260000D01*
X264027Y261079D01*
X263611Y262085D01*
X262948Y262948D01*
X262085Y263611D01*
X261079Y264027D01*
X260000Y264170D01*
D02*
G37*
G36*
X50000D02*
X48921Y264027D01*
X47915Y263611D01*
X47052Y262948D01*
X46389Y262085D01*
X45973Y261079D01*
X45831Y260000D01*
X45973Y258921D01*
X46389Y257915D01*
X47052Y257052D01*
X47915Y256389D01*
X48921Y255973D01*
X50000Y255831D01*
X51079Y255973D01*
X52085Y256389D01*
X52948Y257052D01*
X53611Y257915D01*
X54027Y258921D01*
X54169Y260000D01*
X54027Y261079D01*
X53611Y262085D01*
X52948Y262948D01*
X52085Y263611D01*
X51079Y264027D01*
X50000Y264170D01*
D02*
G37*
G36*
X40000D02*
X38921Y264027D01*
X37915Y263611D01*
X37052Y262948D01*
X36389Y262085D01*
X35973Y261079D01*
X35831Y260000D01*
X35973Y258921D01*
X36389Y257915D01*
X37052Y257052D01*
X37915Y256389D01*
X38921Y255973D01*
X40000Y255831D01*
X41079Y255973D01*
X42085Y256389D01*
X42948Y257052D01*
X43611Y257915D01*
X44027Y258921D01*
X44170Y260000D01*
X44027Y261079D01*
X43611Y262085D01*
X42948Y262948D01*
X42085Y263611D01*
X41079Y264027D01*
X40000Y264170D01*
D02*
G37*
G36*
X50000Y254170D02*
X48921Y254027D01*
X47915Y253611D01*
X47052Y252948D01*
X46389Y252085D01*
X45973Y251079D01*
X45831Y250000D01*
X45973Y248921D01*
X46389Y247915D01*
X47052Y247052D01*
X47915Y246389D01*
X48921Y245973D01*
X50000Y245830D01*
X51079Y245973D01*
X52085Y246389D01*
X52948Y247052D01*
X53611Y247915D01*
X54027Y248921D01*
X54169Y250000D01*
X54027Y251079D01*
X53611Y252085D01*
X52948Y252948D01*
X52085Y253611D01*
X51079Y254027D01*
X50000Y254170D01*
D02*
G37*
G36*
X40000D02*
X38921Y254027D01*
X37915Y253611D01*
X37052Y252948D01*
X36389Y252085D01*
X35973Y251079D01*
X35831Y250000D01*
X35973Y248921D01*
X36389Y247915D01*
X37052Y247052D01*
X37915Y246389D01*
X38921Y245973D01*
X40000Y245830D01*
X41079Y245973D01*
X42085Y246389D01*
X42948Y247052D01*
X43611Y247915D01*
X44027Y248921D01*
X44170Y250000D01*
X44027Y251079D01*
X43611Y252085D01*
X42948Y252948D01*
X42085Y253611D01*
X41079Y254027D01*
X40000Y254170D01*
D02*
G37*
G36*
Y244169D02*
X38921Y244027D01*
X37915Y243611D01*
X37052Y242948D01*
X36389Y242085D01*
X35973Y241079D01*
X35831Y240000D01*
X35973Y238921D01*
X36389Y237915D01*
X37052Y237052D01*
X37915Y236389D01*
X38921Y235973D01*
X40000Y235830D01*
X41079Y235973D01*
X42085Y236389D01*
X42948Y237052D01*
X43611Y237915D01*
X44027Y238921D01*
X44170Y240000D01*
X44027Y241079D01*
X43611Y242085D01*
X42948Y242948D01*
X42085Y243611D01*
X41079Y244027D01*
X40000Y244169D01*
D02*
G37*
G36*
X270000Y234170D02*
X268921Y234027D01*
X267915Y233611D01*
X267052Y232948D01*
X266389Y232085D01*
X265973Y231079D01*
X265830Y230000D01*
X265973Y228921D01*
X266389Y227915D01*
X267052Y227052D01*
X267915Y226389D01*
X268921Y225973D01*
X270000Y225831D01*
X271079Y225973D01*
X272085Y226389D01*
X272948Y227052D01*
X273611Y227915D01*
X274027Y228921D01*
X274169Y230000D01*
X274027Y231079D01*
X273611Y232085D01*
X272948Y232948D01*
X272085Y233611D01*
X271079Y234027D01*
X270000Y234170D01*
D02*
G37*
G36*
Y224169D02*
X268921Y224027D01*
X267915Y223611D01*
X267052Y222948D01*
X266389Y222085D01*
X265973Y221079D01*
X265830Y220000D01*
X265973Y218921D01*
X266389Y217915D01*
X267052Y217052D01*
X267915Y216389D01*
X268921Y215973D01*
X270000Y215830D01*
X271079Y215973D01*
X272085Y216389D01*
X272948Y217052D01*
X273611Y217915D01*
X274027Y218921D01*
X274169Y220000D01*
X274027Y221079D01*
X273611Y222085D01*
X272948Y222948D01*
X272085Y223611D01*
X271079Y224027D01*
X270000Y224169D01*
D02*
G37*
G36*
X260000D02*
X258921Y224027D01*
X257915Y223611D01*
X257052Y222948D01*
X256389Y222085D01*
X255973Y221079D01*
X255831Y220000D01*
X255973Y218921D01*
X256389Y217915D01*
X257052Y217052D01*
X257915Y216389D01*
X258921Y215973D01*
X260000Y215830D01*
X261079Y215973D01*
X262085Y216389D01*
X262948Y217052D01*
X263611Y217915D01*
X264027Y218921D01*
X264170Y220000D01*
X264027Y221079D01*
X263611Y222085D01*
X262948Y222948D01*
X262085Y223611D01*
X261079Y224027D01*
X260000Y224169D01*
D02*
G37*
G36*
X270000Y214170D02*
X268921Y214027D01*
X267915Y213611D01*
X267052Y212948D01*
X266389Y212085D01*
X265973Y211079D01*
X265830Y210000D01*
X265973Y208921D01*
X266389Y207915D01*
X267052Y207052D01*
X267915Y206389D01*
X268921Y205973D01*
X270000Y205831D01*
X271079Y205973D01*
X272085Y206389D01*
X272948Y207052D01*
X273611Y207915D01*
X274027Y208921D01*
X274169Y210000D01*
X274027Y211079D01*
X273611Y212085D01*
X272948Y212948D01*
X272085Y213611D01*
X271079Y214027D01*
X270000Y214170D01*
D02*
G37*
G36*
X260000D02*
X258921Y214027D01*
X257915Y213611D01*
X257052Y212948D01*
X256389Y212085D01*
X255973Y211079D01*
X255831Y210000D01*
X255973Y208921D01*
X256389Y207915D01*
X257052Y207052D01*
X257915Y206389D01*
X258921Y205973D01*
X260000Y205831D01*
X261079Y205973D01*
X262085Y206389D01*
X262948Y207052D01*
X263611Y207915D01*
X264027Y208921D01*
X264170Y210000D01*
X264027Y211079D01*
X263611Y212085D01*
X262948Y212948D01*
X262085Y213611D01*
X261079Y214027D01*
X260000Y214170D01*
D02*
G37*
G36*
X153000Y206924D02*
Y205500D01*
X154424D01*
X154369Y205774D01*
X153931Y206431D01*
X153274Y206869D01*
X153000Y206924D01*
D02*
G37*
G36*
X152000D02*
X151726Y206869D01*
X151069Y206431D01*
X150631Y205774D01*
X150576Y205500D01*
X152000D01*
Y206924D01*
D02*
G37*
G36*
X154424Y204500D02*
X153000D01*
Y203076D01*
X153274Y203131D01*
X153931Y203569D01*
X154369Y204226D01*
X154424Y204500D01*
D02*
G37*
G36*
X152000D02*
X150576D01*
X150631Y204226D01*
X151069Y203569D01*
X151726Y203131D01*
X152000Y203076D01*
Y204500D01*
D02*
G37*
G36*
X178000Y199424D02*
X177726Y199369D01*
X177069Y198931D01*
X176631Y198274D01*
X176576Y198000D01*
X178000D01*
Y199424D01*
D02*
G37*
G36*
X270000Y204170D02*
X268921Y204027D01*
X267915Y203611D01*
X267052Y202948D01*
X266389Y202085D01*
X265973Y201079D01*
X265830Y200000D01*
X265973Y198921D01*
X266389Y197915D01*
X267052Y197052D01*
X267915Y196389D01*
X268921Y195973D01*
X270000Y195831D01*
X271079Y195973D01*
X272085Y196389D01*
X272948Y197052D01*
X273611Y197915D01*
X274027Y198921D01*
X274169Y200000D01*
X274027Y201079D01*
X273611Y202085D01*
X272948Y202948D01*
X272085Y203611D01*
X271079Y204027D01*
X270000Y204170D01*
D02*
G37*
G36*
X260000D02*
X258921Y204027D01*
X257915Y203611D01*
X257052Y202948D01*
X256389Y202085D01*
X255973Y201079D01*
X255831Y200000D01*
X255973Y198921D01*
X256389Y197915D01*
X257052Y197052D01*
X257915Y196389D01*
X258921Y195973D01*
X260000Y195831D01*
X261079Y195973D01*
X262085Y196389D01*
X262948Y197052D01*
X263611Y197915D01*
X264027Y198921D01*
X264170Y200000D01*
X264027Y201079D01*
X263611Y202085D01*
X262948Y202948D01*
X262085Y203611D01*
X261079Y204027D01*
X260000Y204170D01*
D02*
G37*
G36*
X50000D02*
X48921Y204027D01*
X47915Y203611D01*
X47052Y202948D01*
X46389Y202085D01*
X45973Y201079D01*
X45831Y200000D01*
X45973Y198921D01*
X46389Y197915D01*
X47052Y197052D01*
X47915Y196389D01*
X48921Y195973D01*
X50000Y195831D01*
X51079Y195973D01*
X52085Y196389D01*
X52948Y197052D01*
X53611Y197915D01*
X54027Y198921D01*
X54169Y200000D01*
X54027Y201079D01*
X53611Y202085D01*
X52948Y202948D01*
X52085Y203611D01*
X51079Y204027D01*
X50000Y204170D01*
D02*
G37*
G36*
X40000D02*
X38921Y204027D01*
X37915Y203611D01*
X37052Y202948D01*
X36389Y202085D01*
X35973Y201079D01*
X35831Y200000D01*
X35973Y198921D01*
X36389Y197915D01*
X37052Y197052D01*
X37915Y196389D01*
X38921Y195973D01*
X40000Y195831D01*
X41079Y195973D01*
X42085Y196389D01*
X42948Y197052D01*
X43611Y197915D01*
X44027Y198921D01*
X44170Y200000D01*
X44027Y201079D01*
X43611Y202085D01*
X42948Y202948D01*
X42085Y203611D01*
X41079Y204027D01*
X40000Y204170D01*
D02*
G37*
G36*
X150500Y194424D02*
Y193000D01*
X151924D01*
X151869Y193274D01*
X151431Y193931D01*
X150774Y194369D01*
X150500Y194424D01*
D02*
G37*
G36*
X149500D02*
X149226Y194369D01*
X148569Y193931D01*
X148131Y193274D01*
X148076Y193000D01*
X149500D01*
Y194424D01*
D02*
G37*
G36*
X151924Y192000D02*
X150500D01*
Y190576D01*
X150774Y190631D01*
X151431Y191069D01*
X151869Y191726D01*
X151924Y192000D01*
D02*
G37*
G36*
X149500D02*
X148076D01*
X148131Y191726D01*
X148569Y191069D01*
X149226Y190631D01*
X149500Y190576D01*
Y192000D01*
D02*
G37*
G36*
X270000Y194169D02*
X268921Y194027D01*
X267915Y193611D01*
X267052Y192948D01*
X266389Y192085D01*
X265973Y191079D01*
X265830Y190000D01*
X265973Y188921D01*
X266389Y187915D01*
X267052Y187052D01*
X267915Y186389D01*
X268921Y185973D01*
X270000Y185830D01*
X271079Y185973D01*
X272085Y186389D01*
X272948Y187052D01*
X273611Y187915D01*
X274027Y188921D01*
X274169Y190000D01*
X274027Y191079D01*
X273611Y192085D01*
X272948Y192948D01*
X272085Y193611D01*
X271079Y194027D01*
X270000Y194169D01*
D02*
G37*
G36*
X260000D02*
X258921Y194027D01*
X257915Y193611D01*
X257052Y192948D01*
X256389Y192085D01*
X255973Y191079D01*
X255831Y190000D01*
X255973Y188921D01*
X256389Y187915D01*
X257052Y187052D01*
X257915Y186389D01*
X258921Y185973D01*
X260000Y185830D01*
X261079Y185973D01*
X262085Y186389D01*
X262948Y187052D01*
X263611Y187915D01*
X264027Y188921D01*
X264170Y190000D01*
X264027Y191079D01*
X263611Y192085D01*
X262948Y192948D01*
X262085Y193611D01*
X261079Y194027D01*
X260000Y194169D01*
D02*
G37*
G36*
X50000D02*
X48921Y194027D01*
X47915Y193611D01*
X47052Y192948D01*
X46389Y192085D01*
X45973Y191079D01*
X45831Y190000D01*
X45973Y188921D01*
X46389Y187915D01*
X47052Y187052D01*
X47915Y186389D01*
X48921Y185973D01*
X50000Y185830D01*
X51079Y185973D01*
X52085Y186389D01*
X52948Y187052D01*
X53611Y187915D01*
X54027Y188921D01*
X54169Y190000D01*
X54027Y191079D01*
X53611Y192085D01*
X52948Y192948D01*
X52085Y193611D01*
X51079Y194027D01*
X50000Y194169D01*
D02*
G37*
G36*
X40000D02*
X38921Y194027D01*
X37915Y193611D01*
X37052Y192948D01*
X36389Y192085D01*
X35973Y191079D01*
X35831Y190000D01*
X35973Y188921D01*
X36389Y187915D01*
X37052Y187052D01*
X37915Y186389D01*
X38921Y185973D01*
X40000Y185830D01*
X41079Y185973D01*
X42085Y186389D01*
X42948Y187052D01*
X43611Y187915D01*
X44027Y188921D01*
X44170Y190000D01*
X44027Y191079D01*
X43611Y192085D01*
X42948Y192948D01*
X42085Y193611D01*
X41079Y194027D01*
X40000Y194169D01*
D02*
G37*
G36*
X270000Y184169D02*
X268921Y184027D01*
X267915Y183611D01*
X267052Y182948D01*
X266389Y182085D01*
X265973Y181079D01*
X265830Y180000D01*
X265973Y178921D01*
X266389Y177915D01*
X267052Y177052D01*
X267915Y176389D01*
X268921Y175973D01*
X270000Y175830D01*
X271079Y175973D01*
X272085Y176389D01*
X272948Y177052D01*
X273611Y177915D01*
X274027Y178921D01*
X274169Y180000D01*
X274027Y181079D01*
X273611Y182085D01*
X272948Y182948D01*
X272085Y183611D01*
X271079Y184027D01*
X270000Y184169D01*
D02*
G37*
G36*
X260000D02*
X258921Y184027D01*
X257915Y183611D01*
X257052Y182948D01*
X256389Y182085D01*
X255973Y181079D01*
X255831Y180000D01*
X255973Y178921D01*
X256389Y177915D01*
X257052Y177052D01*
X257915Y176389D01*
X258921Y175973D01*
X260000Y175830D01*
X261079Y175973D01*
X262085Y176389D01*
X262948Y177052D01*
X263611Y177915D01*
X264027Y178921D01*
X264170Y180000D01*
X264027Y181079D01*
X263611Y182085D01*
X262948Y182948D01*
X262085Y183611D01*
X261079Y184027D01*
X260000Y184169D01*
D02*
G37*
G36*
X50000D02*
X48921Y184027D01*
X47915Y183611D01*
X47052Y182948D01*
X46389Y182085D01*
X45973Y181079D01*
X45831Y180000D01*
X45973Y178921D01*
X46389Y177915D01*
X47052Y177052D01*
X47915Y176389D01*
X48921Y175973D01*
X50000Y175830D01*
X51079Y175973D01*
X52085Y176389D01*
X52948Y177052D01*
X53611Y177915D01*
X54027Y178921D01*
X54169Y180000D01*
X54027Y181079D01*
X53611Y182085D01*
X52948Y182948D01*
X52085Y183611D01*
X51079Y184027D01*
X50000Y184169D01*
D02*
G37*
G36*
X40000D02*
X38921Y184027D01*
X37915Y183611D01*
X37052Y182948D01*
X36389Y182085D01*
X35973Y181079D01*
X35831Y180000D01*
X35973Y178921D01*
X36389Y177915D01*
X37052Y177052D01*
X37915Y176389D01*
X38921Y175973D01*
X40000Y175830D01*
X41079Y175973D01*
X42085Y176389D01*
X42948Y177052D01*
X43611Y177915D01*
X44027Y178921D01*
X44170Y180000D01*
X44027Y181079D01*
X43611Y182085D01*
X42948Y182948D01*
X42085Y183611D01*
X41079Y184027D01*
X40000Y184169D01*
D02*
G37*
G36*
X153600Y170624D02*
Y169200D01*
X155024D01*
X154969Y169474D01*
X154531Y170131D01*
X153874Y170569D01*
X153600Y170624D01*
D02*
G37*
G36*
X152600D02*
X152326Y170569D01*
X151669Y170131D01*
X151231Y169474D01*
X151176Y169200D01*
X152600D01*
Y170624D01*
D02*
G37*
G36*
X155024Y168200D02*
X153600D01*
Y166776D01*
X153874Y166831D01*
X154531Y167269D01*
X154969Y167926D01*
X155024Y168200D01*
D02*
G37*
G36*
X152600D02*
X151176D01*
X151231Y167926D01*
X151669Y167269D01*
X152326Y166831D01*
X152600Y166776D01*
Y168200D01*
D02*
G37*
G36*
X270000Y174170D02*
X268921Y174027D01*
X267915Y173611D01*
X267052Y172948D01*
X266389Y172085D01*
X265973Y171079D01*
X265830Y170000D01*
X265973Y168921D01*
X266254Y168241D01*
X264118Y166105D01*
X262536D01*
X262366Y166605D01*
X262948Y167052D01*
X263611Y167915D01*
X264027Y168921D01*
X264170Y170000D01*
X264027Y171079D01*
X263611Y172085D01*
X262948Y172948D01*
X262085Y173611D01*
X261079Y174027D01*
X260000Y174170D01*
X258921Y174027D01*
X257915Y173611D01*
X257052Y172948D01*
X256389Y172085D01*
X256107Y171405D01*
X202054D01*
X201516Y171298D01*
X201060Y170993D01*
X189287Y159220D01*
X188982Y158764D01*
X188875Y158227D01*
Y156162D01*
X183917Y151204D01*
X183900Y151207D01*
X183132Y151054D01*
X182481Y150619D01*
X182046Y149968D01*
X181893Y149200D01*
X181901Y149158D01*
X181476Y148732D01*
X181100Y148807D01*
X180332Y148654D01*
X179681Y148219D01*
X179246Y147568D01*
X179093Y146800D01*
X179235Y146087D01*
X179127Y145875D01*
X178927Y145609D01*
X178149Y145455D01*
X177427Y144973D01*
X176945Y144251D01*
X176876Y143900D01*
X181124D01*
X181054Y144251D01*
X180993Y144343D01*
X181271Y144827D01*
X181868Y144946D01*
X182302Y145236D01*
X184960D01*
X185498Y145343D01*
X185953Y145648D01*
X193242Y152936D01*
X193547Y153392D01*
X193654Y153930D01*
Y154855D01*
X194154Y155122D01*
X194460Y154917D01*
X195024Y154805D01*
X197914Y151916D01*
X198434Y151568D01*
X199049Y151445D01*
X199049Y151445D01*
X203660D01*
X204032Y151197D01*
X204800Y151044D01*
X205568Y151197D01*
X206219Y151632D01*
X206654Y152283D01*
X206807Y153051D01*
X206654Y153819D01*
X206219Y154470D01*
X205568Y154905D01*
X204800Y155058D01*
X204032Y154905D01*
X203660Y154657D01*
X199714D01*
X197145Y157226D01*
X197083Y157540D01*
X196648Y158191D01*
X196093Y158561D01*
X195934Y159109D01*
X200120Y163295D01*
X264700D01*
X265238Y163402D01*
X265693Y163707D01*
X268241Y166254D01*
X268921Y165973D01*
X270000Y165831D01*
X271079Y165973D01*
X272085Y166389D01*
X272948Y167052D01*
X273611Y167915D01*
X274027Y168921D01*
X274169Y170000D01*
X274027Y171079D01*
X273611Y172085D01*
X272948Y172948D01*
X272085Y173611D01*
X271079Y174027D01*
X270000Y174170D01*
D02*
G37*
G36*
X50000D02*
X48921Y174027D01*
X47915Y173611D01*
X47052Y172948D01*
X46389Y172085D01*
X45973Y171079D01*
X45831Y170000D01*
X45973Y168921D01*
X46389Y167915D01*
X47052Y167052D01*
X47915Y166389D01*
X48921Y165973D01*
X50000Y165831D01*
X51079Y165973D01*
X52085Y166389D01*
X52948Y167052D01*
X53611Y167915D01*
X54027Y168921D01*
X54169Y170000D01*
X54027Y171079D01*
X53611Y172085D01*
X52948Y172948D01*
X52085Y173611D01*
X51079Y174027D01*
X50000Y174170D01*
D02*
G37*
G36*
X40000D02*
X38921Y174027D01*
X37915Y173611D01*
X37052Y172948D01*
X36389Y172085D01*
X35973Y171079D01*
X35831Y170000D01*
X35973Y168921D01*
X36389Y167915D01*
X37052Y167052D01*
X37915Y166389D01*
X38921Y165973D01*
X40000Y165831D01*
X41079Y165973D01*
X42085Y166389D01*
X42948Y167052D01*
X43611Y167915D01*
X44027Y168921D01*
X44170Y170000D01*
X44027Y171079D01*
X43611Y172085D01*
X42948Y172948D01*
X42085Y173611D01*
X41079Y174027D01*
X40000Y174170D01*
D02*
G37*
G36*
X207541Y161754D02*
Y160331D01*
X208965D01*
X208910Y160605D01*
X208471Y161261D01*
X207815Y161700D01*
X207541Y161754D01*
D02*
G37*
G36*
X206541D02*
X206267Y161700D01*
X205610Y161261D01*
X205172Y160605D01*
X205117Y160331D01*
X206541D01*
Y161754D01*
D02*
G37*
G36*
X208965Y159331D02*
X207541D01*
Y157907D01*
X207815Y157962D01*
X208471Y158400D01*
X208910Y159056D01*
X208965Y159331D01*
D02*
G37*
G36*
X206541D02*
X205117D01*
X205172Y159056D01*
X205610Y158400D01*
X206267Y157962D01*
X206541Y157907D01*
Y159331D01*
D02*
G37*
G36*
X240500Y158600D02*
Y157176D01*
X241924D01*
X241869Y157451D01*
X241431Y158107D01*
X240774Y158546D01*
X240500Y158600D01*
D02*
G37*
G36*
X239500D02*
X239226Y158546D01*
X238569Y158107D01*
X238131Y157451D01*
X238076Y157176D01*
X239500D01*
Y158600D01*
D02*
G37*
G36*
X170500Y156394D02*
Y154970D01*
X171924D01*
X171869Y155245D01*
X171431Y155901D01*
X170774Y156340D01*
X170500Y156394D01*
D02*
G37*
G36*
X169500D02*
X169226Y156340D01*
X168569Y155901D01*
X168131Y155245D01*
X168076Y154970D01*
X169500D01*
Y156394D01*
D02*
G37*
G36*
X241924Y156176D02*
X240500D01*
Y154753D01*
X240774Y154807D01*
X241431Y155246D01*
X241869Y155902D01*
X241924Y156176D01*
D02*
G37*
G36*
X239500D02*
X238076D01*
X238131Y155902D01*
X238569Y155246D01*
X239226Y154807D01*
X239500Y154753D01*
Y156176D01*
D02*
G37*
G36*
X110756Y155465D02*
Y153841D01*
X112380D01*
X112311Y154192D01*
X111828Y154913D01*
X111107Y155395D01*
X110756Y155465D01*
D02*
G37*
G36*
X109756D02*
X109405Y155395D01*
X108684Y154913D01*
X108202Y154192D01*
X108132Y153841D01*
X109756D01*
Y155465D01*
D02*
G37*
G36*
X171924Y153970D02*
X170500D01*
Y152547D01*
X170774Y152601D01*
X171431Y153040D01*
X171869Y153696D01*
X171924Y153970D01*
D02*
G37*
G36*
X169500D02*
X168076D01*
X168131Y153696D01*
X168569Y153040D01*
X169226Y152601D01*
X169500Y152547D01*
Y153970D01*
D02*
G37*
G36*
X112380Y152841D02*
X110756D01*
Y151216D01*
X111107Y151286D01*
X111828Y151768D01*
X112311Y152490D01*
X112380Y152841D01*
D02*
G37*
G36*
X109756D02*
X108132D01*
X108202Y152490D01*
X108684Y151768D01*
X109405Y151286D01*
X109756Y151216D01*
Y152841D01*
D02*
G37*
G36*
X119500Y152724D02*
Y151100D01*
X121124D01*
X121054Y151451D01*
X120572Y152173D01*
X119851Y152655D01*
X119500Y152724D01*
D02*
G37*
G36*
X118500D02*
X118149Y152655D01*
X117428Y152173D01*
X116946Y151451D01*
X116876Y151100D01*
X118500D01*
Y152724D01*
D02*
G37*
G36*
X229100Y151124D02*
Y149500D01*
X230724D01*
X230655Y149851D01*
X230172Y150573D01*
X229451Y151055D01*
X229100Y151124D01*
D02*
G37*
G36*
X228100D02*
X227749Y151055D01*
X227028Y150573D01*
X226545Y149851D01*
X226476Y149500D01*
X228100D01*
Y151124D01*
D02*
G37*
G36*
X121124Y150100D02*
X119500D01*
Y148476D01*
X119851Y148546D01*
X120572Y149028D01*
X121054Y149749D01*
X121124Y150100D01*
D02*
G37*
G36*
X118500D02*
X116876D01*
X116946Y149749D01*
X117428Y149028D01*
X118149Y148546D01*
X118500Y148476D01*
Y150100D01*
D02*
G37*
G36*
X206767Y149050D02*
Y147626D01*
X208190D01*
X208136Y147900D01*
X207697Y148556D01*
X207041Y148995D01*
X206767Y149050D01*
D02*
G37*
G36*
X205767D02*
X205492Y148995D01*
X204836Y148556D01*
X204398Y147900D01*
X204343Y147626D01*
X205767D01*
Y149050D01*
D02*
G37*
G36*
X230724Y148500D02*
X229100D01*
Y146876D01*
X229451Y146946D01*
X230172Y147427D01*
X230655Y148149D01*
X230724Y148500D01*
D02*
G37*
G36*
X228100D02*
X226476D01*
X226545Y148149D01*
X227028Y147427D01*
X227749Y146946D01*
X228100Y146876D01*
Y148500D01*
D02*
G37*
G36*
X196700Y147524D02*
Y145900D01*
X198324D01*
X198255Y146251D01*
X197773Y146973D01*
X197051Y147455D01*
X196700Y147524D01*
D02*
G37*
G36*
X195700D02*
X195349Y147455D01*
X194627Y146973D01*
X194146Y146251D01*
X194076Y145900D01*
X195700D01*
Y147524D01*
D02*
G37*
G36*
X208190Y146626D02*
X206767D01*
Y145202D01*
X207041Y145257D01*
X207697Y145695D01*
X208136Y146352D01*
X208190Y146626D01*
D02*
G37*
G36*
X205767D02*
X204343D01*
X204398Y146352D01*
X204836Y145695D01*
X205492Y145257D01*
X205767Y145202D01*
Y146626D01*
D02*
G37*
G36*
X198324Y144900D02*
X196700D01*
Y143276D01*
X197051Y143345D01*
X197773Y143827D01*
X198255Y144549D01*
X198324Y144900D01*
D02*
G37*
G36*
X195700D02*
X194076D01*
X194146Y144549D01*
X194627Y143827D01*
X195349Y143345D01*
X195700Y143276D01*
Y144900D01*
D02*
G37*
G36*
X160200Y144473D02*
Y143049D01*
X161624D01*
X161569Y143323D01*
X161131Y143980D01*
X160474Y144418D01*
X160200Y144473D01*
D02*
G37*
G36*
X159200D02*
X158926Y144418D01*
X158269Y143980D01*
X157831Y143323D01*
X157776Y143049D01*
X159200D01*
Y144473D01*
D02*
G37*
G36*
X181124Y142900D02*
X179500D01*
Y141276D01*
X179851Y141346D01*
X180572Y141827D01*
X181054Y142549D01*
X181124Y142900D01*
D02*
G37*
G36*
X178500D02*
X176876D01*
X176945Y142549D01*
X177427Y141827D01*
X178149Y141346D01*
X178500Y141276D01*
Y142900D01*
D02*
G37*
G36*
X161624Y142049D02*
X160200D01*
Y140625D01*
X160474Y140680D01*
X161131Y141118D01*
X161569Y141775D01*
X161624Y142049D01*
D02*
G37*
G36*
X159200D02*
X157776D01*
X157831Y141775D01*
X158269Y141118D01*
X158926Y140680D01*
X159200Y140625D01*
Y142049D01*
D02*
G37*
G36*
X143000Y139424D02*
Y138000D01*
X144424D01*
X144369Y138274D01*
X143931Y138931D01*
X143274Y139369D01*
X143000Y139424D01*
D02*
G37*
G36*
X144424Y137000D02*
X143000D01*
Y135576D01*
X143274Y135631D01*
X143931Y136069D01*
X144369Y136726D01*
X144424Y137000D01*
D02*
G37*
G36*
X142000D02*
X140576D01*
X140631Y136726D01*
X141069Y136069D01*
X141726Y135631D01*
X142000Y135576D01*
Y137000D01*
D02*
G37*
G36*
X159200Y131443D02*
X158849Y131373D01*
X158127Y130891D01*
X157645Y130169D01*
X157576Y129818D01*
X159200D01*
Y131443D01*
D02*
G37*
G36*
X147020Y129841D02*
Y128418D01*
X148443D01*
X148389Y128692D01*
X147950Y129348D01*
X147294Y129787D01*
X147020Y129841D01*
D02*
G37*
G36*
X146020D02*
X145745Y129787D01*
X145089Y129348D01*
X144650Y128692D01*
X144596Y128418D01*
X146020D01*
Y129841D01*
D02*
G37*
G36*
X148443Y127418D02*
X147020D01*
Y125994D01*
X147294Y126048D01*
X147950Y126487D01*
X148389Y127143D01*
X148443Y127418D01*
D02*
G37*
G36*
X146020D02*
X144596D01*
X144650Y127143D01*
X145089Y126487D01*
X145745Y126048D01*
X146020Y125994D01*
Y127418D01*
D02*
G37*
G36*
X270000Y134169D02*
X268921Y134027D01*
X267915Y133611D01*
X267052Y132948D01*
X266389Y132085D01*
X265973Y131079D01*
X265830Y130000D01*
X265973Y128921D01*
X266389Y127915D01*
X267052Y127052D01*
X267915Y126389D01*
X268921Y125973D01*
X270000Y125830D01*
X271079Y125973D01*
X272085Y126389D01*
X272948Y127052D01*
X273611Y127915D01*
X274027Y128921D01*
X274169Y130000D01*
X274027Y131079D01*
X273611Y132085D01*
X272948Y132948D01*
X272085Y133611D01*
X271079Y134027D01*
X270000Y134169D01*
D02*
G37*
G36*
X260000D02*
X258921Y134027D01*
X257915Y133611D01*
X257052Y132948D01*
X256389Y132085D01*
X255973Y131079D01*
X255831Y130000D01*
X255973Y128921D01*
X256389Y127915D01*
X257052Y127052D01*
X257915Y126389D01*
X258921Y125973D01*
X260000Y125830D01*
X261079Y125973D01*
X262085Y126389D01*
X262948Y127052D01*
X263611Y127915D01*
X264027Y128921D01*
X264170Y130000D01*
X264027Y131079D01*
X263611Y132085D01*
X262948Y132948D01*
X262085Y133611D01*
X261079Y134027D01*
X260000Y134169D01*
D02*
G37*
G36*
X50000D02*
X48921Y134027D01*
X47915Y133611D01*
X47052Y132948D01*
X46389Y132085D01*
X45973Y131079D01*
X45831Y130000D01*
X45973Y128921D01*
X46389Y127915D01*
X47052Y127052D01*
X47915Y126389D01*
X48921Y125973D01*
X50000Y125830D01*
X51079Y125973D01*
X52085Y126389D01*
X52948Y127052D01*
X53611Y127915D01*
X54027Y128921D01*
X54169Y130000D01*
X54027Y131079D01*
X53611Y132085D01*
X52948Y132948D01*
X52085Y133611D01*
X51079Y134027D01*
X50000Y134169D01*
D02*
G37*
G36*
X40000D02*
X38921Y134027D01*
X37915Y133611D01*
X37052Y132948D01*
X36389Y132085D01*
X35973Y131079D01*
X35831Y130000D01*
X35973Y128921D01*
X36389Y127915D01*
X37052Y127052D01*
X37915Y126389D01*
X38921Y125973D01*
X40000Y125830D01*
X41079Y125973D01*
X42085Y126389D01*
X42948Y127052D01*
X43611Y127915D01*
X44027Y128921D01*
X44170Y130000D01*
X44027Y131079D01*
X43611Y132085D01*
X42948Y132948D01*
X42085Y133611D01*
X41079Y134027D01*
X40000Y134169D01*
D02*
G37*
G36*
X117796Y130103D02*
X117028Y129951D01*
X116377Y129516D01*
X116163Y129195D01*
X116005Y129090D01*
X83596Y96680D01*
X53229D01*
X53047Y97180D01*
X53611Y97915D01*
X54027Y98921D01*
X54169Y100000D01*
X54027Y101079D01*
X53611Y102085D01*
X52948Y102948D01*
X52085Y103611D01*
X51079Y104027D01*
X50000Y104169D01*
X48921Y104027D01*
X47915Y103611D01*
X47052Y102948D01*
X46389Y102085D01*
X45973Y101079D01*
X45831Y100000D01*
X45973Y98921D01*
X46389Y97915D01*
X46953Y97180D01*
X46771Y96680D01*
X45276D01*
X44738Y96574D01*
X44282Y96269D01*
X41759Y93746D01*
X41079Y94027D01*
X40000Y94169D01*
X38921Y94027D01*
X37915Y93611D01*
X37052Y92948D01*
X36389Y92085D01*
X35973Y91079D01*
X35831Y90000D01*
X35973Y88921D01*
X36389Y87915D01*
X37052Y87052D01*
X37915Y86389D01*
X38921Y85973D01*
X40000Y85830D01*
X41079Y85973D01*
X42085Y86389D01*
X42948Y87052D01*
X43611Y87915D01*
X44027Y88921D01*
X44170Y90000D01*
X44027Y91079D01*
X43746Y91759D01*
X45858Y93871D01*
X47432D01*
X47602Y93371D01*
X47052Y92948D01*
X46389Y92085D01*
X45973Y91079D01*
X45831Y90000D01*
X45973Y88921D01*
X46389Y87915D01*
X47052Y87052D01*
X47504Y86705D01*
X47334Y86205D01*
X45200D01*
X44662Y86098D01*
X44207Y85793D01*
X42042Y83629D01*
X41079Y84027D01*
X40000Y84170D01*
X38921Y84027D01*
X37915Y83611D01*
X37052Y82948D01*
X36389Y82085D01*
X35973Y81079D01*
X35831Y80000D01*
X35973Y78921D01*
X36389Y77915D01*
X37052Y77052D01*
X37915Y76389D01*
X38921Y75973D01*
X40000Y75831D01*
X41079Y75973D01*
X42085Y76389D01*
X42948Y77052D01*
X43611Y77915D01*
X44027Y78921D01*
X44170Y80000D01*
X44027Y81079D01*
X43863Y81476D01*
X45782Y83395D01*
X46900D01*
X46904Y83382D01*
X47011Y82895D01*
X46389Y82085D01*
X45973Y81079D01*
X45831Y80000D01*
X45973Y78921D01*
X46389Y77915D01*
X47052Y77052D01*
X47915Y76389D01*
X48921Y75973D01*
X50000Y75831D01*
X51079Y75973D01*
X52085Y76389D01*
X52948Y77052D01*
X53611Y77915D01*
X54027Y78921D01*
X54169Y80000D01*
X54027Y81079D01*
X53611Y82085D01*
X52989Y82895D01*
X53096Y83382D01*
X53100Y83395D01*
X80794D01*
X81331Y83502D01*
X81787Y83807D01*
X117583Y119603D01*
X117600Y119599D01*
X118368Y119752D01*
X119019Y120187D01*
X119454Y120838D01*
X119607Y121606D01*
X119454Y122374D01*
X119019Y123026D01*
X119014Y123029D01*
Y123391D01*
X119064Y123597D01*
X119456Y124185D01*
X119609Y124953D01*
X119456Y125721D01*
X119218Y126078D01*
X119215Y126673D01*
X119292Y126792D01*
X119650Y127328D01*
X119803Y128096D01*
X119650Y128864D01*
X119215Y129516D01*
X118564Y129951D01*
X117796Y130103D01*
D02*
G37*
G36*
X270000Y124170D02*
X268921Y124027D01*
X267915Y123611D01*
X267052Y122948D01*
X266389Y122085D01*
X265973Y121079D01*
X265830Y120000D01*
X265973Y118921D01*
X266389Y117915D01*
X267052Y117052D01*
X267915Y116389D01*
X268921Y115973D01*
X270000Y115831D01*
X271079Y115973D01*
X272085Y116389D01*
X272948Y117052D01*
X273611Y117915D01*
X274027Y118921D01*
X274169Y120000D01*
X274027Y121079D01*
X273611Y122085D01*
X272948Y122948D01*
X272085Y123611D01*
X271079Y124027D01*
X270000Y124170D01*
D02*
G37*
G36*
X260000D02*
X258921Y124027D01*
X257915Y123611D01*
X257052Y122948D01*
X256389Y122085D01*
X255973Y121079D01*
X255831Y120000D01*
X255973Y118921D01*
X256389Y117915D01*
X257052Y117052D01*
X257915Y116389D01*
X258921Y115973D01*
X260000Y115831D01*
X261079Y115973D01*
X262085Y116389D01*
X262948Y117052D01*
X263611Y117915D01*
X264027Y118921D01*
X264170Y120000D01*
X264027Y121079D01*
X263611Y122085D01*
X262948Y122948D01*
X262085Y123611D01*
X261079Y124027D01*
X260000Y124170D01*
D02*
G37*
G36*
X50000D02*
X48921Y124027D01*
X47915Y123611D01*
X47052Y122948D01*
X46389Y122085D01*
X45973Y121079D01*
X45831Y120000D01*
X45973Y118921D01*
X46389Y117915D01*
X47052Y117052D01*
X47915Y116389D01*
X48921Y115973D01*
X50000Y115831D01*
X51079Y115973D01*
X52085Y116389D01*
X52948Y117052D01*
X53611Y117915D01*
X54027Y118921D01*
X54169Y120000D01*
X54027Y121079D01*
X53611Y122085D01*
X52948Y122948D01*
X52085Y123611D01*
X51079Y124027D01*
X50000Y124170D01*
D02*
G37*
G36*
X40000D02*
X38921Y124027D01*
X37915Y123611D01*
X37052Y122948D01*
X36389Y122085D01*
X35973Y121079D01*
X35831Y120000D01*
X35973Y118921D01*
X36389Y117915D01*
X37052Y117052D01*
X37915Y116389D01*
X38921Y115973D01*
X40000Y115831D01*
X41079Y115973D01*
X42085Y116389D01*
X42948Y117052D01*
X43611Y117915D01*
X44027Y118921D01*
X44170Y120000D01*
X44027Y121079D01*
X43611Y122085D01*
X42948Y122948D01*
X42085Y123611D01*
X41079Y124027D01*
X40000Y124170D01*
D02*
G37*
G36*
X270000Y114170D02*
X268921Y114027D01*
X267915Y113611D01*
X267052Y112948D01*
X266389Y112085D01*
X265973Y111079D01*
X265830Y110000D01*
X265973Y108921D01*
X266389Y107915D01*
X267052Y107052D01*
X267915Y106389D01*
X268921Y105973D01*
X270000Y105831D01*
X271079Y105973D01*
X272085Y106389D01*
X272948Y107052D01*
X273611Y107915D01*
X274027Y108921D01*
X274169Y110000D01*
X274027Y111079D01*
X273611Y112085D01*
X272948Y112948D01*
X272085Y113611D01*
X271079Y114027D01*
X270000Y114170D01*
D02*
G37*
G36*
X260000D02*
X258921Y114027D01*
X257915Y113611D01*
X257052Y112948D01*
X256389Y112085D01*
X255973Y111079D01*
X255831Y110000D01*
X255973Y108921D01*
X256389Y107915D01*
X257052Y107052D01*
X257915Y106389D01*
X258921Y105973D01*
X260000Y105831D01*
X261079Y105973D01*
X262085Y106389D01*
X262948Y107052D01*
X263611Y107915D01*
X264027Y108921D01*
X264170Y110000D01*
X264027Y111079D01*
X263611Y112085D01*
X262948Y112948D01*
X262085Y113611D01*
X261079Y114027D01*
X260000Y114170D01*
D02*
G37*
G36*
X50000D02*
X48921Y114027D01*
X47915Y113611D01*
X47052Y112948D01*
X46389Y112085D01*
X45973Y111079D01*
X45831Y110000D01*
X45973Y108921D01*
X46389Y107915D01*
X47052Y107052D01*
X47915Y106389D01*
X48921Y105973D01*
X50000Y105831D01*
X51079Y105973D01*
X52085Y106389D01*
X52948Y107052D01*
X53611Y107915D01*
X54027Y108921D01*
X54169Y110000D01*
X54027Y111079D01*
X53611Y112085D01*
X52948Y112948D01*
X52085Y113611D01*
X51079Y114027D01*
X50000Y114170D01*
D02*
G37*
G36*
X40000D02*
X38921Y114027D01*
X37915Y113611D01*
X37052Y112948D01*
X36389Y112085D01*
X35973Y111079D01*
X35831Y110000D01*
X35973Y108921D01*
X36389Y107915D01*
X37052Y107052D01*
X37915Y106389D01*
X38921Y105973D01*
X40000Y105831D01*
X41079Y105973D01*
X42085Y106389D01*
X42948Y107052D01*
X43611Y107915D01*
X44027Y108921D01*
X44170Y110000D01*
X44027Y111079D01*
X43611Y112085D01*
X42948Y112948D01*
X42085Y113611D01*
X41079Y114027D01*
X40000Y114170D01*
D02*
G37*
G36*
X138692Y108615D02*
X137924Y108462D01*
X137273Y108027D01*
X136838Y107376D01*
X136685Y106607D01*
X136689Y106591D01*
X103207Y73109D01*
X102902Y72653D01*
X102795Y72115D01*
Y45800D01*
X102902Y45262D01*
X103207Y44807D01*
X106254Y41759D01*
X105973Y41079D01*
X105831Y40000D01*
X105973Y38921D01*
X106389Y37915D01*
X107052Y37052D01*
X107915Y36389D01*
X108921Y35973D01*
X110000Y35831D01*
X111079Y35973D01*
X112085Y36389D01*
X112948Y37052D01*
X113611Y37915D01*
X114027Y38921D01*
X114170Y40000D01*
X114027Y41079D01*
X113611Y42085D01*
X112948Y42948D01*
X112085Y43611D01*
X111079Y44027D01*
X110000Y44170D01*
X108921Y44027D01*
X108241Y43746D01*
X105605Y46382D01*
Y47946D01*
X106105Y48046D01*
X106203Y47808D01*
X106900Y46900D01*
X107808Y46203D01*
X108865Y45765D01*
X109500Y45682D01*
Y50000D01*
Y54318D01*
X108865Y54235D01*
X107808Y53797D01*
X106900Y53100D01*
X106203Y52192D01*
X106105Y51954D01*
X105605Y52054D01*
Y71533D01*
X138676Y104604D01*
X138692Y104600D01*
X139461Y104753D01*
X140112Y105188D01*
X140547Y105839D01*
X140700Y106607D01*
X140547Y107376D01*
X140112Y108027D01*
X139461Y108462D01*
X138692Y108615D01*
D02*
G37*
G36*
X140612Y99424D02*
Y98000D01*
X142035D01*
X141981Y98274D01*
X141542Y98931D01*
X140886Y99369D01*
X140612Y99424D01*
D02*
G37*
G36*
X139612D02*
X139338Y99369D01*
X138681Y98931D01*
X138243Y98274D01*
X138188Y98000D01*
X139612D01*
Y99424D01*
D02*
G37*
G36*
X270000Y104169D02*
X268921Y104027D01*
X267915Y103611D01*
X267052Y102948D01*
X266389Y102085D01*
X265973Y101079D01*
X265830Y100000D01*
X265973Y98921D01*
X266389Y97915D01*
X267052Y97052D01*
X267915Y96389D01*
X268921Y95973D01*
X270000Y95831D01*
X271079Y95973D01*
X272085Y96389D01*
X272948Y97052D01*
X273611Y97915D01*
X274027Y98921D01*
X274169Y100000D01*
X274027Y101079D01*
X273611Y102085D01*
X272948Y102948D01*
X272085Y103611D01*
X271079Y104027D01*
X270000Y104169D01*
D02*
G37*
G36*
X260000D02*
X258921Y104027D01*
X257915Y103611D01*
X257052Y102948D01*
X256389Y102085D01*
X255973Y101079D01*
X255831Y100000D01*
X255973Y98921D01*
X256389Y97915D01*
X257052Y97052D01*
X257915Y96389D01*
X258921Y95973D01*
X260000Y95831D01*
X261079Y95973D01*
X262085Y96389D01*
X262948Y97052D01*
X263611Y97915D01*
X264027Y98921D01*
X264170Y100000D01*
X264027Y101079D01*
X263611Y102085D01*
X262948Y102948D01*
X262085Y103611D01*
X261079Y104027D01*
X260000Y104169D01*
D02*
G37*
G36*
X40000D02*
X38921Y104027D01*
X37915Y103611D01*
X37052Y102948D01*
X36389Y102085D01*
X35973Y101079D01*
X35831Y100000D01*
X35973Y98921D01*
X36389Y97915D01*
X37052Y97052D01*
X37915Y96389D01*
X38921Y95973D01*
X40000Y95831D01*
X41079Y95973D01*
X42085Y96389D01*
X42948Y97052D01*
X43611Y97915D01*
X44027Y98921D01*
X44170Y100000D01*
X44027Y101079D01*
X43611Y102085D01*
X42948Y102948D01*
X42085Y103611D01*
X41079Y104027D01*
X40000Y104169D01*
D02*
G37*
G36*
X142035Y97000D02*
X140612D01*
Y95576D01*
X140886Y95631D01*
X141542Y96069D01*
X141981Y96726D01*
X142035Y97000D01*
D02*
G37*
G36*
X139612D02*
X138188D01*
X138243Y96726D01*
X138681Y96069D01*
X139338Y95631D01*
X139612Y95576D01*
Y97000D01*
D02*
G37*
G36*
X270000Y94169D02*
X268921Y94027D01*
X267915Y93611D01*
X267052Y92948D01*
X266389Y92085D01*
X265973Y91079D01*
X265830Y90000D01*
X265973Y88921D01*
X266389Y87915D01*
X267052Y87052D01*
X267915Y86389D01*
X268921Y85973D01*
X270000Y85830D01*
X271079Y85973D01*
X272085Y86389D01*
X272948Y87052D01*
X273611Y87915D01*
X274027Y88921D01*
X274169Y90000D01*
X274027Y91079D01*
X273611Y92085D01*
X272948Y92948D01*
X272085Y93611D01*
X271079Y94027D01*
X270000Y94169D01*
D02*
G37*
G36*
X260000D02*
X258921Y94027D01*
X257915Y93611D01*
X257052Y92948D01*
X256389Y92085D01*
X255973Y91079D01*
X255831Y90000D01*
X255973Y88921D01*
X256389Y87915D01*
X257052Y87052D01*
X257915Y86389D01*
X258921Y85973D01*
X260000Y85830D01*
X261079Y85973D01*
X262085Y86389D01*
X262948Y87052D01*
X263611Y87915D01*
X264027Y88921D01*
X264170Y90000D01*
X264027Y91079D01*
X263611Y92085D01*
X262948Y92948D01*
X262085Y93611D01*
X261079Y94027D01*
X260000Y94169D01*
D02*
G37*
G36*
X270000Y84170D02*
X268921Y84027D01*
X267915Y83611D01*
X267052Y82948D01*
X266389Y82085D01*
X265973Y81079D01*
X265830Y80000D01*
X265973Y78921D01*
X266389Y77915D01*
X267052Y77052D01*
X267915Y76389D01*
X268921Y75973D01*
X270000Y75831D01*
X271079Y75973D01*
X272085Y76389D01*
X272948Y77052D01*
X273611Y77915D01*
X274027Y78921D01*
X274169Y80000D01*
X274027Y81079D01*
X273611Y82085D01*
X272948Y82948D01*
X272085Y83611D01*
X271079Y84027D01*
X270000Y84170D01*
D02*
G37*
G36*
X260000D02*
X258921Y84027D01*
X257915Y83611D01*
X257052Y82948D01*
X256389Y82085D01*
X255973Y81079D01*
X255831Y80000D01*
X255973Y78921D01*
X256389Y77915D01*
X257052Y77052D01*
X257915Y76389D01*
X258921Y75973D01*
X260000Y75831D01*
X261079Y75973D01*
X262085Y76389D01*
X262948Y77052D01*
X263611Y77915D01*
X264027Y78921D01*
X264170Y80000D01*
X264027Y81079D01*
X263611Y82085D01*
X262948Y82948D01*
X262085Y83611D01*
X261079Y84027D01*
X260000Y84170D01*
D02*
G37*
G36*
X50000Y74169D02*
X48921Y74027D01*
X47915Y73611D01*
X47052Y72948D01*
X46389Y72085D01*
X45973Y71079D01*
X45831Y70000D01*
X45973Y68921D01*
X46389Y67915D01*
X47052Y67052D01*
X47915Y66389D01*
X48921Y65973D01*
X50000Y65830D01*
X51079Y65973D01*
X52085Y66389D01*
X52948Y67052D01*
X53611Y67915D01*
X54027Y68921D01*
X54169Y70000D01*
X54027Y71079D01*
X53611Y72085D01*
X52948Y72948D01*
X52085Y73611D01*
X51079Y74027D01*
X50000Y74169D01*
D02*
G37*
G36*
X40000D02*
X38921Y74027D01*
X37915Y73611D01*
X37052Y72948D01*
X36389Y72085D01*
X35973Y71079D01*
X35831Y70000D01*
X35973Y68921D01*
X36389Y67915D01*
X37052Y67052D01*
X37915Y66389D01*
X38921Y65973D01*
X40000Y65830D01*
X41079Y65973D01*
X42085Y66389D01*
X42948Y67052D01*
X43611Y67915D01*
X44027Y68921D01*
X44170Y70000D01*
X44027Y71079D01*
X43611Y72085D01*
X42948Y72948D01*
X42085Y73611D01*
X41079Y74027D01*
X40000Y74169D01*
D02*
G37*
G36*
X50000Y64170D02*
X48921Y64027D01*
X47915Y63611D01*
X47052Y62948D01*
X46389Y62085D01*
X45973Y61079D01*
X45831Y60000D01*
X45973Y58921D01*
X46389Y57915D01*
X47052Y57052D01*
X47915Y56389D01*
X48921Y55973D01*
X50000Y55831D01*
X51079Y55973D01*
X52085Y56389D01*
X52948Y57052D01*
X53611Y57915D01*
X54027Y58921D01*
X54169Y60000D01*
X54027Y61079D01*
X53611Y62085D01*
X52948Y62948D01*
X52085Y63611D01*
X51079Y64027D01*
X50000Y64170D01*
D02*
G37*
G36*
X40000D02*
X38921Y64027D01*
X37915Y63611D01*
X37052Y62948D01*
X36389Y62085D01*
X35973Y61079D01*
X35831Y60000D01*
X35973Y58921D01*
X36389Y57915D01*
X37052Y57052D01*
X37915Y56389D01*
X38921Y55973D01*
X40000Y55831D01*
X41079Y55973D01*
X42085Y56389D01*
X42948Y57052D01*
X43611Y57915D01*
X44027Y58921D01*
X44170Y60000D01*
X44027Y61079D01*
X43611Y62085D01*
X42948Y62948D01*
X42085Y63611D01*
X41079Y64027D01*
X40000Y64170D01*
D02*
G37*
G36*
X200500Y54318D02*
Y50500D01*
X204318D01*
X204235Y51135D01*
X203797Y52192D01*
X203100Y53100D01*
X202192Y53797D01*
X201135Y54235D01*
X200500Y54318D01*
D02*
G37*
G36*
X199500D02*
X198865Y54235D01*
X197808Y53797D01*
X196900Y53100D01*
X196203Y52192D01*
X195765Y51135D01*
X195682Y50500D01*
X199500D01*
Y54318D01*
D02*
G37*
G36*
X190500D02*
Y50500D01*
X194318D01*
X194235Y51135D01*
X193797Y52192D01*
X193100Y53100D01*
X192192Y53797D01*
X191135Y54235D01*
X190500Y54318D01*
D02*
G37*
G36*
X189500D02*
X188865Y54235D01*
X187808Y53797D01*
X186900Y53100D01*
X186203Y52192D01*
X185765Y51135D01*
X185682Y50500D01*
X189500D01*
Y54318D01*
D02*
G37*
G36*
X180500D02*
Y50500D01*
X184318D01*
X184235Y51135D01*
X183797Y52192D01*
X183100Y53100D01*
X182192Y53797D01*
X181135Y54235D01*
X180500Y54318D01*
D02*
G37*
G36*
X179500D02*
X178865Y54235D01*
X177808Y53797D01*
X176900Y53100D01*
X176203Y52192D01*
X175765Y51135D01*
X175682Y50500D01*
X179500D01*
Y54318D01*
D02*
G37*
G36*
X170500D02*
Y50500D01*
X174318D01*
X174235Y51135D01*
X173797Y52192D01*
X173100Y53100D01*
X172192Y53797D01*
X171135Y54235D01*
X170500Y54318D01*
D02*
G37*
G36*
X169500D02*
X168865Y54235D01*
X167808Y53797D01*
X166900Y53100D01*
X166203Y52192D01*
X165765Y51135D01*
X165682Y50500D01*
X169500D01*
Y54318D01*
D02*
G37*
G36*
X160500D02*
Y50500D01*
X164318D01*
X164235Y51135D01*
X163797Y52192D01*
X163100Y53100D01*
X162192Y53797D01*
X161135Y54235D01*
X160500Y54318D01*
D02*
G37*
G36*
X159500D02*
X158865Y54235D01*
X157808Y53797D01*
X156900Y53100D01*
X156203Y52192D01*
X155765Y51135D01*
X155682Y50500D01*
X159500D01*
Y54318D01*
D02*
G37*
G36*
X150500D02*
Y50500D01*
X154318D01*
X154235Y51135D01*
X153797Y52192D01*
X153100Y53100D01*
X152192Y53797D01*
X151135Y54235D01*
X150500Y54318D01*
D02*
G37*
G36*
X149500D02*
X148865Y54235D01*
X147808Y53797D01*
X146900Y53100D01*
X146203Y52192D01*
X145765Y51135D01*
X145682Y50500D01*
X149500D01*
Y54318D01*
D02*
G37*
G36*
X140500D02*
Y50500D01*
X144318D01*
X144235Y51135D01*
X143797Y52192D01*
X143100Y53100D01*
X142192Y53797D01*
X141135Y54235D01*
X140500Y54318D01*
D02*
G37*
G36*
X139500D02*
X138865Y54235D01*
X137808Y53797D01*
X136900Y53100D01*
X136203Y52192D01*
X135765Y51135D01*
X135682Y50500D01*
X139500D01*
Y54318D01*
D02*
G37*
G36*
X130500D02*
Y50500D01*
X134318D01*
X134235Y51135D01*
X133797Y52192D01*
X133100Y53100D01*
X132192Y53797D01*
X131135Y54235D01*
X130500Y54318D01*
D02*
G37*
G36*
X129500D02*
X128865Y54235D01*
X127808Y53797D01*
X126900Y53100D01*
X126203Y52192D01*
X125765Y51135D01*
X125682Y50500D01*
X129500D01*
Y54318D01*
D02*
G37*
G36*
X120500D02*
Y50500D01*
X124318D01*
X124235Y51135D01*
X123797Y52192D01*
X123100Y53100D01*
X122192Y53797D01*
X121135Y54235D01*
X120500Y54318D01*
D02*
G37*
G36*
X119500D02*
X118865Y54235D01*
X117808Y53797D01*
X116900Y53100D01*
X116203Y52192D01*
X115765Y51135D01*
X115682Y50500D01*
X119500D01*
Y54318D01*
D02*
G37*
G36*
X110500D02*
Y50500D01*
X114318D01*
X114235Y51135D01*
X113797Y52192D01*
X113100Y53100D01*
X112192Y53797D01*
X111135Y54235D01*
X110500Y54318D01*
D02*
G37*
G36*
X270000Y54169D02*
X268921Y54027D01*
X267915Y53611D01*
X267052Y52948D01*
X266389Y52085D01*
X265973Y51079D01*
X265830Y50000D01*
X265973Y48921D01*
X266389Y47915D01*
X267052Y47052D01*
X267915Y46389D01*
X268921Y45973D01*
X270000Y45831D01*
X271079Y45973D01*
X272085Y46389D01*
X272948Y47052D01*
X273611Y47915D01*
X274027Y48921D01*
X274169Y50000D01*
X274027Y51079D01*
X273611Y52085D01*
X272948Y52948D01*
X272085Y53611D01*
X271079Y54027D01*
X270000Y54169D01*
D02*
G37*
G36*
X50000D02*
X48921Y54027D01*
X47915Y53611D01*
X47052Y52948D01*
X46389Y52085D01*
X45973Y51079D01*
X45831Y50000D01*
X45973Y48921D01*
X46389Y47915D01*
X47052Y47052D01*
X47915Y46389D01*
X48921Y45973D01*
X50000Y45831D01*
X51079Y45973D01*
X52085Y46389D01*
X52948Y47052D01*
X53611Y47915D01*
X54027Y48921D01*
X54169Y50000D01*
X54027Y51079D01*
X53611Y52085D01*
X52948Y52948D01*
X52085Y53611D01*
X51079Y54027D01*
X50000Y54169D01*
D02*
G37*
G36*
X40000D02*
X38921Y54027D01*
X37915Y53611D01*
X37052Y52948D01*
X36389Y52085D01*
X35973Y51079D01*
X35831Y50000D01*
X35973Y48921D01*
X36389Y47915D01*
X37052Y47052D01*
X37915Y46389D01*
X38921Y45973D01*
X40000Y45831D01*
X41079Y45973D01*
X42085Y46389D01*
X42948Y47052D01*
X43611Y47915D01*
X44027Y48921D01*
X44170Y50000D01*
X44027Y51079D01*
X43611Y52085D01*
X42948Y52948D01*
X42085Y53611D01*
X41079Y54027D01*
X40000Y54169D01*
D02*
G37*
G36*
X204318Y49500D02*
X200500D01*
Y45682D01*
X201135Y45765D01*
X202192Y46203D01*
X203100Y46900D01*
X203797Y47808D01*
X204235Y48865D01*
X204318Y49500D01*
D02*
G37*
G36*
X199500D02*
X195682D01*
X195765Y48865D01*
X196203Y47808D01*
X196900Y46900D01*
X197808Y46203D01*
X198865Y45765D01*
X199500Y45682D01*
Y49500D01*
D02*
G37*
G36*
X194318D02*
X190500D01*
Y45682D01*
X191135Y45765D01*
X192192Y46203D01*
X193100Y46900D01*
X193797Y47808D01*
X194235Y48865D01*
X194318Y49500D01*
D02*
G37*
G36*
X189500D02*
X185682D01*
X185765Y48865D01*
X186203Y47808D01*
X186900Y46900D01*
X187808Y46203D01*
X188865Y45765D01*
X189500Y45682D01*
Y49500D01*
D02*
G37*
G36*
X184318D02*
X180500D01*
Y45682D01*
X181135Y45765D01*
X182192Y46203D01*
X183100Y46900D01*
X183797Y47808D01*
X184235Y48865D01*
X184318Y49500D01*
D02*
G37*
G36*
X179500D02*
X175682D01*
X175765Y48865D01*
X176203Y47808D01*
X176900Y46900D01*
X177808Y46203D01*
X178865Y45765D01*
X179500Y45682D01*
Y49500D01*
D02*
G37*
G36*
X174318D02*
X170500D01*
Y45682D01*
X171135Y45765D01*
X172192Y46203D01*
X173100Y46900D01*
X173797Y47808D01*
X174235Y48865D01*
X174318Y49500D01*
D02*
G37*
G36*
X169500D02*
X165682D01*
X165765Y48865D01*
X166203Y47808D01*
X166900Y46900D01*
X167808Y46203D01*
X168865Y45765D01*
X169500Y45682D01*
Y49500D01*
D02*
G37*
G36*
X164318D02*
X160500D01*
Y45682D01*
X161135Y45765D01*
X162192Y46203D01*
X163100Y46900D01*
X163797Y47808D01*
X164235Y48865D01*
X164318Y49500D01*
D02*
G37*
G36*
X159500D02*
X155682D01*
X155765Y48865D01*
X156203Y47808D01*
X156900Y46900D01*
X157808Y46203D01*
X158865Y45765D01*
X159500Y45682D01*
Y49500D01*
D02*
G37*
G36*
X154318D02*
X150500D01*
Y45682D01*
X151135Y45765D01*
X152192Y46203D01*
X153100Y46900D01*
X153797Y47808D01*
X154235Y48865D01*
X154318Y49500D01*
D02*
G37*
G36*
X149500D02*
X145682D01*
X145765Y48865D01*
X146203Y47808D01*
X146900Y46900D01*
X147808Y46203D01*
X148865Y45765D01*
X149500Y45682D01*
Y49500D01*
D02*
G37*
G36*
X144318D02*
X140500D01*
Y45682D01*
X141135Y45765D01*
X142192Y46203D01*
X143100Y46900D01*
X143797Y47808D01*
X144235Y48865D01*
X144318Y49500D01*
D02*
G37*
G36*
X139500D02*
X135682D01*
X135765Y48865D01*
X136203Y47808D01*
X136900Y46900D01*
X137808Y46203D01*
X138865Y45765D01*
X139500Y45682D01*
Y49500D01*
D02*
G37*
G36*
X134318D02*
X130500D01*
Y45682D01*
X131135Y45765D01*
X132192Y46203D01*
X133100Y46900D01*
X133797Y47808D01*
X134235Y48865D01*
X134318Y49500D01*
D02*
G37*
G36*
X129500D02*
X125682D01*
X125765Y48865D01*
X126203Y47808D01*
X126900Y46900D01*
X127808Y46203D01*
X128865Y45765D01*
X129500Y45682D01*
Y49500D01*
D02*
G37*
G36*
X124318D02*
X120500D01*
Y45682D01*
X121135Y45765D01*
X122192Y46203D01*
X123100Y46900D01*
X123797Y47808D01*
X124235Y48865D01*
X124318Y49500D01*
D02*
G37*
G36*
X119500D02*
X115682D01*
X115765Y48865D01*
X116203Y47808D01*
X116900Y46900D01*
X117808Y46203D01*
X118865Y45765D01*
X119500Y45682D01*
Y49500D01*
D02*
G37*
G36*
X114318D02*
X110500D01*
Y45682D01*
X111135Y45765D01*
X112192Y46203D01*
X113100Y46900D01*
X113797Y47808D01*
X114235Y48865D01*
X114318Y49500D01*
D02*
G37*
G36*
X270000Y44170D02*
X268921Y44027D01*
X267915Y43611D01*
X267052Y42948D01*
X266389Y42085D01*
X265973Y41079D01*
X265830Y40000D01*
X265973Y38921D01*
X266389Y37915D01*
X267052Y37052D01*
X267915Y36389D01*
X268921Y35973D01*
X270000Y35831D01*
X271079Y35973D01*
X272085Y36389D01*
X272948Y37052D01*
X273611Y37915D01*
X274027Y38921D01*
X274169Y40000D01*
X274027Y41079D01*
X273611Y42085D01*
X272948Y42948D01*
X272085Y43611D01*
X271079Y44027D01*
X270000Y44170D01*
D02*
G37*
G36*
X260000D02*
X258921Y44027D01*
X257915Y43611D01*
X257052Y42948D01*
X256389Y42085D01*
X255973Y41079D01*
X255831Y40000D01*
X255973Y38921D01*
X256389Y37915D01*
X257052Y37052D01*
X257915Y36389D01*
X258921Y35973D01*
X260000Y35831D01*
X261079Y35973D01*
X262085Y36389D01*
X262948Y37052D01*
X263611Y37915D01*
X264027Y38921D01*
X264170Y40000D01*
X264027Y41079D01*
X263611Y42085D01*
X262948Y42948D01*
X262085Y43611D01*
X261079Y44027D01*
X260000Y44170D01*
D02*
G37*
G36*
X200000D02*
X198921Y44027D01*
X197915Y43611D01*
X197052Y42948D01*
X196389Y42085D01*
X195973Y41079D01*
X195831Y40000D01*
X195973Y38921D01*
X196389Y37915D01*
X197052Y37052D01*
X197915Y36389D01*
X198921Y35973D01*
X200000Y35831D01*
X201079Y35973D01*
X202085Y36389D01*
X202948Y37052D01*
X203611Y37915D01*
X204027Y38921D01*
X204170Y40000D01*
X204027Y41079D01*
X203611Y42085D01*
X202948Y42948D01*
X202085Y43611D01*
X201079Y44027D01*
X200000Y44170D01*
D02*
G37*
G36*
X190000D02*
X188921Y44027D01*
X187915Y43611D01*
X187052Y42948D01*
X186389Y42085D01*
X185973Y41079D01*
X185830Y40000D01*
X185973Y38921D01*
X186389Y37915D01*
X187052Y37052D01*
X187915Y36389D01*
X188921Y35973D01*
X190000Y35831D01*
X191079Y35973D01*
X192085Y36389D01*
X192948Y37052D01*
X193611Y37915D01*
X194027Y38921D01*
X194169Y40000D01*
X194027Y41079D01*
X193611Y42085D01*
X192948Y42948D01*
X192085Y43611D01*
X191079Y44027D01*
X190000Y44170D01*
D02*
G37*
G36*
X180000D02*
X178921Y44027D01*
X177915Y43611D01*
X177052Y42948D01*
X176389Y42085D01*
X175973Y41079D01*
X175830Y40000D01*
X175973Y38921D01*
X176389Y37915D01*
X177052Y37052D01*
X177915Y36389D01*
X178921Y35973D01*
X180000Y35831D01*
X181079Y35973D01*
X182085Y36389D01*
X182948Y37052D01*
X183611Y37915D01*
X184027Y38921D01*
X184169Y40000D01*
X184027Y41079D01*
X183611Y42085D01*
X182948Y42948D01*
X182085Y43611D01*
X181079Y44027D01*
X180000Y44170D01*
D02*
G37*
G36*
X170000D02*
X168921Y44027D01*
X167915Y43611D01*
X167052Y42948D01*
X166389Y42085D01*
X165973Y41079D01*
X165831Y40000D01*
X165973Y38921D01*
X166389Y37915D01*
X167052Y37052D01*
X167915Y36389D01*
X168921Y35973D01*
X170000Y35831D01*
X171079Y35973D01*
X172085Y36389D01*
X172948Y37052D01*
X173611Y37915D01*
X174027Y38921D01*
X174170Y40000D01*
X174027Y41079D01*
X173611Y42085D01*
X172948Y42948D01*
X172085Y43611D01*
X171079Y44027D01*
X170000Y44170D01*
D02*
G37*
G36*
X160000D02*
X158921Y44027D01*
X157915Y43611D01*
X157052Y42948D01*
X156389Y42085D01*
X155973Y41079D01*
X155831Y40000D01*
X155973Y38921D01*
X156389Y37915D01*
X157052Y37052D01*
X157915Y36389D01*
X158921Y35973D01*
X160000Y35831D01*
X161079Y35973D01*
X162085Y36389D01*
X162948Y37052D01*
X163611Y37915D01*
X164027Y38921D01*
X164170Y40000D01*
X164027Y41079D01*
X163611Y42085D01*
X162948Y42948D01*
X162085Y43611D01*
X161079Y44027D01*
X160000Y44170D01*
D02*
G37*
G36*
X150000D02*
X148921Y44027D01*
X147915Y43611D01*
X147052Y42948D01*
X146389Y42085D01*
X145973Y41079D01*
X145831Y40000D01*
X145973Y38921D01*
X146389Y37915D01*
X147052Y37052D01*
X147915Y36389D01*
X148921Y35973D01*
X150000Y35831D01*
X151079Y35973D01*
X152085Y36389D01*
X152948Y37052D01*
X153611Y37915D01*
X154027Y38921D01*
X154169Y40000D01*
X154027Y41079D01*
X153611Y42085D01*
X152948Y42948D01*
X152085Y43611D01*
X151079Y44027D01*
X150000Y44170D01*
D02*
G37*
G36*
X140000D02*
X138921Y44027D01*
X137915Y43611D01*
X137052Y42948D01*
X136389Y42085D01*
X135973Y41079D01*
X135830Y40000D01*
X135973Y38921D01*
X136389Y37915D01*
X137052Y37052D01*
X137915Y36389D01*
X138921Y35973D01*
X140000Y35831D01*
X141079Y35973D01*
X142085Y36389D01*
X142948Y37052D01*
X143611Y37915D01*
X144027Y38921D01*
X144169Y40000D01*
X144027Y41079D01*
X143611Y42085D01*
X142948Y42948D01*
X142085Y43611D01*
X141079Y44027D01*
X140000Y44170D01*
D02*
G37*
G36*
X130000D02*
X128921Y44027D01*
X127915Y43611D01*
X127052Y42948D01*
X126389Y42085D01*
X125973Y41079D01*
X125830Y40000D01*
X125973Y38921D01*
X126389Y37915D01*
X127052Y37052D01*
X127915Y36389D01*
X128921Y35973D01*
X130000Y35831D01*
X131079Y35973D01*
X132085Y36389D01*
X132948Y37052D01*
X133611Y37915D01*
X134027Y38921D01*
X134169Y40000D01*
X134027Y41079D01*
X133611Y42085D01*
X132948Y42948D01*
X132085Y43611D01*
X131079Y44027D01*
X130000Y44170D01*
D02*
G37*
G36*
X50000D02*
X48921Y44027D01*
X47915Y43611D01*
X47052Y42948D01*
X46389Y42085D01*
X45973Y41079D01*
X45831Y40000D01*
X45973Y38921D01*
X46389Y37915D01*
X47052Y37052D01*
X47915Y36389D01*
X48921Y35973D01*
X50000Y35831D01*
X51079Y35973D01*
X52085Y36389D01*
X52948Y37052D01*
X53611Y37915D01*
X54027Y38921D01*
X54169Y40000D01*
X54027Y41079D01*
X53611Y42085D01*
X52948Y42948D01*
X52085Y43611D01*
X51079Y44027D01*
X50000Y44170D01*
D02*
G37*
G36*
X40000D02*
X38921Y44027D01*
X37915Y43611D01*
X37052Y42948D01*
X36389Y42085D01*
X35973Y41079D01*
X35831Y40000D01*
X35973Y38921D01*
X36389Y37915D01*
X37052Y37052D01*
X37915Y36389D01*
X38921Y35973D01*
X40000Y35831D01*
X41079Y35973D01*
X42085Y36389D01*
X42948Y37052D01*
X43611Y37915D01*
X44027Y38921D01*
X44170Y40000D01*
X44027Y41079D01*
X43611Y42085D01*
X42948Y42948D01*
X42085Y43611D01*
X41079Y44027D01*
X40000Y44170D01*
D02*
G37*
G36*
X23820Y31267D02*
X22580D01*
X22481Y31248D01*
X22381D01*
X21164Y31005D01*
X21071Y30967D01*
X20972Y30948D01*
X19826Y30473D01*
X19742Y30417D01*
X19650Y30378D01*
X18618Y29689D01*
X18547Y29618D01*
X18463Y29562D01*
X17586Y28685D01*
X17530Y28601D01*
X17459Y28530D01*
X16770Y27499D01*
X16732Y27406D01*
X16676Y27322D01*
X16201Y26176D01*
X16181Y26077D01*
X16143Y25985D01*
X15901Y24768D01*
Y24667D01*
X15881Y24569D01*
Y23328D01*
X15901Y23230D01*
Y23129D01*
X16143Y21912D01*
X16181Y21819D01*
X16201Y21721D01*
X16676Y20574D01*
X16732Y20491D01*
X16770Y20398D01*
X17459Y19366D01*
X17530Y19295D01*
X17586Y19212D01*
X18463Y18335D01*
X18547Y18279D01*
X18618Y18208D01*
X19650Y17518D01*
X19742Y17480D01*
X19826Y17424D01*
X20972Y16949D01*
X21071Y16930D01*
X21164Y16891D01*
X22381Y16649D01*
X22481D01*
X22580Y16630D01*
X23820D01*
X23919Y16649D01*
X24019D01*
X25236Y16891D01*
X25329Y16930D01*
X25428Y16949D01*
X26574Y17424D01*
X26658Y17480D01*
X26750Y17518D01*
X27782Y18208D01*
X27853Y18279D01*
X27937Y18335D01*
X28814Y19212D01*
X28870Y19295D01*
X28941Y19366D01*
X29630Y20398D01*
X29669Y20491D01*
X29724Y20574D01*
X30199Y21721D01*
X30219Y21819D01*
X30257Y21912D01*
X30499Y23129D01*
Y23230D01*
X30519Y23328D01*
Y24569D01*
X30499Y24667D01*
Y24768D01*
X30257Y25985D01*
X30219Y26077D01*
X30199Y26176D01*
X29724Y27322D01*
X29669Y27406D01*
X29630Y27499D01*
X28941Y28530D01*
X28870Y28601D01*
X28814Y28685D01*
X27937Y29562D01*
X27853Y29618D01*
X27782Y29689D01*
X26750Y30378D01*
X26658Y30417D01*
X26574Y30473D01*
X25428Y30948D01*
X25329Y30967D01*
X25236Y31005D01*
X24019Y31248D01*
X23919D01*
X23820Y31267D01*
D02*
G37*
G36*
X287467Y31219D02*
X286227D01*
X286128Y31199D01*
X286028D01*
X284810Y30957D01*
X284718Y30919D01*
X284619Y30899D01*
X283473Y30424D01*
X283389Y30369D01*
X283297Y30330D01*
X282265Y29641D01*
X282194Y29570D01*
X282110Y29514D01*
X281233Y28637D01*
X281177Y28553D01*
X281106Y28482D01*
X280417Y27450D01*
X280378Y27358D01*
X280323Y27274D01*
X279848Y26128D01*
X279828Y26029D01*
X279790Y25936D01*
X279548Y24719D01*
Y24619D01*
X279528Y24520D01*
Y23280D01*
X279548Y23181D01*
Y23081D01*
X279790Y21864D01*
X279828Y21771D01*
X279848Y21672D01*
X280323Y20526D01*
X280378Y20443D01*
X280417Y20350D01*
X281106Y19318D01*
X281177Y19247D01*
X281233Y19163D01*
X282110Y18286D01*
X282194Y18230D01*
X282265Y18159D01*
X283297Y17470D01*
X283389Y17432D01*
X283473Y17376D01*
X284619Y16901D01*
X284718Y16881D01*
X284811Y16843D01*
X286028Y16601D01*
X286128D01*
X286227Y16581D01*
X287467D01*
X287566Y16601D01*
X287666D01*
X288883Y16843D01*
X288976Y16881D01*
X289074Y16901D01*
X290221Y17376D01*
X290304Y17432D01*
X290397Y17470D01*
X291429Y18159D01*
X291500Y18230D01*
X291583Y18286D01*
X292461Y19163D01*
X292516Y19247D01*
X292588Y19318D01*
X293277Y20350D01*
X293315Y20443D01*
X293371Y20526D01*
X293846Y21672D01*
X293866Y21771D01*
X293904Y21864D01*
X294146Y23081D01*
Y23181D01*
X294166Y23280D01*
Y24520D01*
X294146Y24619D01*
Y24719D01*
X293904Y25936D01*
X293866Y26029D01*
X293846Y26128D01*
X293371Y27274D01*
X293315Y27358D01*
X293277Y27450D01*
X292588Y28482D01*
X292516Y28553D01*
X292461Y28637D01*
X291583Y29514D01*
X291500Y29570D01*
X291429Y29641D01*
X290397Y30330D01*
X290304Y30369D01*
X290221Y30424D01*
X289074Y30899D01*
X288976Y30919D01*
X288883Y30957D01*
X287666Y31199D01*
X287566D01*
X287467Y31219D01*
D02*
G37*
%LPD*%
G36*
X167190Y293122D02*
X167014Y292986D01*
X166342Y292112D01*
X165920Y291093D01*
X165777Y290000D01*
X165920Y288907D01*
X166342Y287888D01*
X167014Y287014D01*
X167888Y286342D01*
X168595Y286050D01*
Y195782D01*
X161905Y189092D01*
X161405Y189299D01*
Y286050D01*
X161860Y286238D01*
X162379Y286012D01*
X162426Y285953D01*
X162503Y285568D01*
X162942Y284912D01*
X163598Y284473D01*
X163872Y284419D01*
Y286342D01*
X164372D01*
Y286842D01*
X166296D01*
X166241Y287117D01*
X165803Y287773D01*
X165146Y288211D01*
X164395Y288361D01*
X164311Y288389D01*
X164029Y288786D01*
X164080Y288907D01*
X164224Y290000D01*
X164080Y291093D01*
X163658Y292112D01*
X162987Y292986D01*
X162810Y293122D01*
X162971Y293595D01*
X167029D01*
X167190Y293122D01*
D02*
G37*
G36*
X144004Y166808D02*
Y161391D01*
X129917Y147304D01*
X129900Y147307D01*
X129132Y147154D01*
X128481Y146719D01*
X128046Y146068D01*
X127893Y145300D01*
X128046Y144532D01*
X128481Y143881D01*
X129132Y143446D01*
X129900Y143293D01*
X130668Y143446D01*
X131319Y143881D01*
X131754Y144532D01*
X131907Y145300D01*
X131904Y145317D01*
X145674Y159087D01*
X146136Y158896D01*
Y148223D01*
X134126Y136213D01*
X126085Y144253D01*
Y149543D01*
X137643Y161101D01*
X138186Y160937D01*
X138569Y160362D01*
X139226Y159924D01*
X139500Y159869D01*
Y161793D01*
X140000D01*
Y162293D01*
X141924D01*
X141869Y162567D01*
X141431Y163224D01*
X140856Y163607D01*
X140692Y164149D01*
X143542Y167000D01*
X144004Y166808D01*
D02*
G37*
G36*
X161953Y127864D02*
X162551Y127464D01*
X163319Y127312D01*
X163335Y127315D01*
X170730Y119920D01*
X170484Y119459D01*
X170466Y119463D01*
X169615Y119293D01*
X168893Y118811D01*
X168411Y118090D01*
X168242Y117239D01*
X168286Y117019D01*
X168271Y117005D01*
X167825Y116771D01*
X167296Y117125D01*
X166528Y117278D01*
X165760Y117125D01*
X165109Y116690D01*
X164739Y116135D01*
X164191Y115976D01*
X161105Y119062D01*
Y123871D01*
X161119Y123881D01*
X161554Y124532D01*
X161707Y125300D01*
X161554Y126068D01*
X161119Y126719D01*
X160878Y126881D01*
Y127482D01*
X161273Y127746D01*
X161387Y127918D01*
X161772Y127918D01*
X161953Y127864D01*
D02*
G37*
G36*
X178322Y112329D02*
X178276Y112227D01*
X178027Y111916D01*
X177853Y111951D01*
Y110527D01*
X179277D01*
X179242Y110701D01*
X179553Y110950D01*
X179654Y110996D01*
X191268Y99382D01*
Y99129D01*
X191375Y98591D01*
X191680Y98135D01*
X220809Y69007D01*
X221264Y68702D01*
X221802Y68595D01*
X256107D01*
X256389Y67915D01*
X256953Y67181D01*
X256771Y66681D01*
X217105D01*
X168817Y114969D01*
X168785Y115070D01*
X168799Y115128D01*
X169368Y115349D01*
X169615Y115184D01*
X169966Y115114D01*
Y117239D01*
X170966D01*
Y115114D01*
X171317Y115184D01*
X172038Y115666D01*
X172520Y116388D01*
X172689Y117239D01*
X172686Y117257D01*
X173147Y117504D01*
X178322Y112329D01*
D02*
G37*
%LPC*%
G36*
X166296Y285842D02*
X164872D01*
Y284419D01*
X165146Y284473D01*
X165803Y284912D01*
X166241Y285568D01*
X166296Y285842D01*
D02*
G37*
G36*
X165372Y279424D02*
Y278000D01*
X166796D01*
X166741Y278274D01*
X166303Y278931D01*
X165646Y279369D01*
X165372Y279424D01*
D02*
G37*
G36*
X164372D02*
X164098Y279369D01*
X163442Y278931D01*
X163003Y278274D01*
X162949Y278000D01*
X164372D01*
Y279424D01*
D02*
G37*
G36*
X166796Y277000D02*
X165372D01*
Y275576D01*
X165646Y275631D01*
X166303Y276069D01*
X166741Y276726D01*
X166796Y277000D01*
D02*
G37*
G36*
X164372D02*
X162949D01*
X163003Y276726D01*
X163442Y276069D01*
X164098Y275631D01*
X164372Y275576D01*
Y277000D01*
D02*
G37*
G36*
X165500Y205493D02*
Y204069D01*
X166924D01*
X166869Y204344D01*
X166431Y205000D01*
X165774Y205439D01*
X165500Y205493D01*
D02*
G37*
G36*
X164500D02*
X164226Y205439D01*
X163569Y205000D01*
X163131Y204344D01*
X163076Y204069D01*
X164500D01*
Y205493D01*
D02*
G37*
G36*
X166924Y203069D02*
X165500D01*
Y201646D01*
X165774Y201700D01*
X166431Y202139D01*
X166869Y202795D01*
X166924Y203069D01*
D02*
G37*
G36*
X164500D02*
X163076D01*
X163131Y202795D01*
X163569Y202139D01*
X164226Y201700D01*
X164500Y201646D01*
Y203069D01*
D02*
G37*
G36*
X141924Y161293D02*
X140500D01*
Y159869D01*
X140774Y159924D01*
X141431Y160362D01*
X141869Y161019D01*
X141924Y161293D01*
D02*
G37*
G36*
X138143Y145345D02*
Y143922D01*
X139567D01*
X139513Y144196D01*
X139074Y144852D01*
X138418Y145291D01*
X138143Y145345D01*
D02*
G37*
G36*
X137143D02*
X136869Y145291D01*
X136213Y144852D01*
X135774Y144196D01*
X135720Y143922D01*
X137143D01*
Y145345D01*
D02*
G37*
G36*
X139567Y142922D02*
X138143D01*
Y141498D01*
X138418Y141552D01*
X139074Y141991D01*
X139513Y142647D01*
X139567Y142922D01*
D02*
G37*
G36*
X137143D02*
X135720D01*
X135774Y142647D01*
X136213Y141991D01*
X136869Y141552D01*
X137143Y141498D01*
Y142922D01*
D02*
G37*
G36*
X176853Y111951D02*
X176579Y111897D01*
X175922Y111458D01*
X175484Y110802D01*
X175429Y110527D01*
X176853D01*
Y111951D01*
D02*
G37*
G36*
X179277Y109527D02*
X177853D01*
Y108104D01*
X178127Y108158D01*
X178784Y108597D01*
X179222Y109253D01*
X179277Y109527D01*
D02*
G37*
G36*
X176853D02*
X175429D01*
X175484Y109253D01*
X175922Y108597D01*
X176579Y108158D01*
X176853Y108104D01*
Y109527D01*
D02*
G37*
%LPD*%
D10*
X92800Y68600D02*
X146200Y122000D01*
X108000Y28000D02*
X120000Y40000D01*
X97100Y28000D02*
X108000D01*
X92800Y32300D02*
Y68600D01*
Y32300D02*
X97100Y28000D01*
X237400Y282900D02*
Y283000D01*
X180000Y290000D02*
X230400D01*
X237400Y283000D01*
D12*
X142423Y176526D02*
Y224477D01*
X124078Y143422D02*
Y150375D01*
X142850Y169146D01*
Y176099D01*
X142423Y176526D02*
X142850Y176099D01*
X124078Y143422D02*
X133700Y133800D01*
X88100Y278800D02*
X142423Y224477D01*
D36*
X172319Y285781D02*
X172313Y285775D01*
X172795Y286125D02*
X173541Y286792D01*
X174131Y287599D01*
X174540Y288512D01*
X174751Y289490D01*
X174753Y290490D01*
X174547Y291469D01*
X174141Y292383D01*
X173554Y293193D01*
X172812Y293863D01*
X171946Y294364D01*
X170995Y294673D01*
X170000Y294778D01*
Y192000D02*
Y192416D01*
X145000Y295000D02*
X170000D01*
Y294778D02*
Y295000D01*
X171968Y285431D02*
X172313Y285775D01*
X170000Y192416D02*
X171968Y194385D01*
X153200Y175200D02*
X170000Y192000D01*
X171968Y194385D02*
Y285431D01*
X172319Y285781D02*
X172795Y286125D01*
X152959Y178578D02*
X153378D01*
X170000Y195200D01*
X153100Y175200D02*
X153200D01*
X161360Y170269D02*
X162351Y171259D01*
X163674D01*
X232415Y240000D01*
X144982Y180927D02*
Y284982D01*
X150000Y290000D01*
X161196Y170269D02*
X161360D01*
X160255Y169328D02*
X161196Y170269D01*
X159935Y169328D02*
X160255D01*
X160300Y172828D02*
X160526Y173054D01*
Y175350D01*
X235177Y250000D01*
X79770Y234724D02*
X139700Y174795D01*
X44724Y234724D02*
X79770D01*
X139474Y171826D02*
X139700Y171600D01*
X138196Y171826D02*
X139474D01*
X80022Y230000D02*
X138196Y171826D01*
X50000Y230000D02*
X80022D01*
X80984Y220000D02*
X131122Y169861D01*
X136541D01*
X144982Y180927D02*
X145409Y180500D01*
Y160809D02*
Y180500D01*
X129900Y145300D02*
X145409Y160809D01*
X147541Y147641D02*
Y181987D01*
X146063Y122000D02*
X146200D01*
X104200Y72115D02*
X138692Y106607D01*
X104200Y45800D02*
Y72115D01*
X83476Y214724D02*
X132400Y165800D01*
X83700Y210000D02*
X129900Y163800D01*
X133700Y133800D02*
X147541Y147641D01*
X177251Y153051D02*
X178459D01*
X153113Y181987D02*
X160000Y188874D01*
Y290000D01*
X170000Y195200D02*
Y290000D01*
X167260Y164476D02*
X178459Y153277D01*
X181033D01*
X181259Y153051D01*
X163709Y165500D02*
X163919D01*
X228419Y230000D01*
X260000D01*
X146200Y122000D02*
X177251Y153051D01*
X148307Y120212D02*
X154733D01*
X146520Y122000D02*
X148307Y120212D01*
X146200Y122000D02*
X146520D01*
X157292Y118104D02*
X220120Y55276D01*
X157176Y121388D02*
X157292Y121272D01*
Y118104D02*
Y121272D01*
X157176Y121388D02*
Y122724D01*
X156950Y122950D02*
X157176Y122724D01*
X133700Y133800D02*
X145274Y122226D01*
X110256Y153341D02*
X112997Y150600D01*
X119000D01*
X235177Y250000D02*
X260000D01*
X163500Y168700D02*
X163820D01*
X164410Y169291D01*
X164489D01*
X229923Y234724D01*
X264724D01*
X163319Y129319D02*
X192673Y99964D01*
Y99129D02*
Y99964D01*
X221802Y70000D02*
X260000D01*
X164970Y122735D02*
Y124048D01*
X159700Y129318D02*
X164970Y124048D01*
X192673Y99129D02*
X221802Y70000D01*
X164970Y122735D02*
X170466Y117239D01*
X159700Y118480D02*
Y125300D01*
X166528Y115270D02*
X216523Y65276D01*
X265276D01*
X218180Y60000D02*
X260000D01*
X159700Y118480D02*
X218180Y60000D01*
X220120Y55276D02*
X265276D01*
X270000Y60000D01*
X265276Y65276D02*
X270000Y70000D01*
X50000Y220000D02*
X80984D01*
X196200Y145400D02*
X225000D01*
X228600Y149000D01*
X195000Y157000D02*
Y157100D01*
Y157000D02*
X195228Y156772D01*
X183900Y149200D02*
X190280Y155580D01*
X192249Y157411D02*
X199538Y164700D01*
X192249Y153930D02*
Y157411D01*
X199538Y164700D02*
X264700D01*
X190280Y158227D02*
X202054Y170000D01*
X184960Y146641D02*
X192249Y153930D01*
X190280Y155580D02*
Y158227D01*
X202054Y170000D02*
X260000D01*
X181100Y146800D02*
X181259Y146641D01*
X184960D01*
X179000Y143400D02*
X179700Y142700D01*
X193500D02*
X196200Y145400D01*
X179700Y142700D02*
X193500D01*
X264700Y164700D02*
X270000Y170000D01*
X264724Y234724D02*
X270000Y240000D01*
X232415D02*
X260000D01*
X233589Y244724D02*
X264724D01*
X170078Y181214D02*
X233589Y244724D01*
X264724D02*
X270000Y250000D01*
X170010Y181214D02*
X170078D01*
X140000Y290000D02*
X145000Y295000D01*
X81576Y224724D02*
X123700Y182600D01*
X44724Y224724D02*
X81576D01*
X44724Y214724D02*
X83476D01*
X50000Y210000D02*
X83700D01*
X40000Y230000D02*
X44724Y234724D01*
X40000Y220000D02*
X44724Y224724D01*
X40000Y210000D02*
X44724Y214724D01*
X104200Y45800D02*
X110000Y40000D01*
X84178Y95276D02*
X116998Y128096D01*
X117796D01*
X117327Y124953D02*
X117602D01*
X45276Y95276D02*
X84178D01*
X82375Y90000D02*
X117327Y124953D01*
X50000Y90000D02*
X82375D01*
X40000D02*
X45276Y95276D01*
X40000Y80000D02*
X40400D01*
X45200Y84800D01*
X80794D02*
X117600Y121606D01*
X45200Y84800D02*
X80794D01*
D37*
X195000Y157100D02*
X199049Y153051D01*
X204800D01*
D38*
X120000Y290000D02*
D03*
Y300000D02*
D03*
X130000Y290000D02*
D03*
Y300000D02*
D03*
X140000Y290000D02*
D03*
Y300000D02*
D03*
X180000Y290000D02*
D03*
X170000Y300000D02*
D03*
Y290000D02*
D03*
X160000Y300000D02*
D03*
Y290000D02*
D03*
X150000Y300000D02*
D03*
Y290000D02*
D03*
D39*
X180000Y300000D02*
D03*
D40*
X110000Y50000D02*
D03*
X120000D02*
D03*
X130000D02*
D03*
X140000D02*
D03*
X150000D02*
D03*
X160000D02*
D03*
X110000Y40000D02*
D03*
X120000D02*
D03*
X130000D02*
D03*
X140000D02*
D03*
X150000D02*
D03*
X160000D02*
D03*
X170000D02*
D03*
X180000D02*
D03*
X190000D02*
D03*
X200000D02*
D03*
Y50000D02*
D03*
X190000D02*
D03*
X180000D02*
D03*
X170000D02*
D03*
X260000Y40000D02*
D03*
Y50000D02*
D03*
Y60000D02*
D03*
Y70000D02*
D03*
Y80000D02*
D03*
Y90000D02*
D03*
X270000Y40000D02*
D03*
Y50000D02*
D03*
Y60000D02*
D03*
Y70000D02*
D03*
Y80000D02*
D03*
Y90000D02*
D03*
Y100000D02*
D03*
Y110000D02*
D03*
Y120000D02*
D03*
Y130000D02*
D03*
X260000D02*
D03*
Y120000D02*
D03*
Y110000D02*
D03*
Y100000D02*
D03*
Y170000D02*
D03*
Y180000D02*
D03*
Y190000D02*
D03*
Y200000D02*
D03*
Y210000D02*
D03*
Y220000D02*
D03*
X270000Y170000D02*
D03*
Y180000D02*
D03*
Y190000D02*
D03*
Y200000D02*
D03*
Y210000D02*
D03*
Y220000D02*
D03*
Y230000D02*
D03*
Y240000D02*
D03*
Y250000D02*
D03*
Y260000D02*
D03*
X260000D02*
D03*
Y250000D02*
D03*
Y240000D02*
D03*
Y230000D02*
D03*
X50000Y260000D02*
D03*
Y250000D02*
D03*
Y240000D02*
D03*
Y230000D02*
D03*
Y220000D02*
D03*
Y210000D02*
D03*
X40000Y260000D02*
D03*
Y250000D02*
D03*
Y240000D02*
D03*
Y230000D02*
D03*
Y220000D02*
D03*
Y210000D02*
D03*
Y200000D02*
D03*
Y190000D02*
D03*
Y180000D02*
D03*
Y170000D02*
D03*
X50000D02*
D03*
Y180000D02*
D03*
Y190000D02*
D03*
Y200000D02*
D03*
Y130000D02*
D03*
Y120000D02*
D03*
Y110000D02*
D03*
Y100000D02*
D03*
Y90000D02*
D03*
Y80000D02*
D03*
X40000Y130000D02*
D03*
Y120000D02*
D03*
Y110000D02*
D03*
Y100000D02*
D03*
Y90000D02*
D03*
Y80000D02*
D03*
Y70000D02*
D03*
Y60000D02*
D03*
Y50000D02*
D03*
Y40000D02*
D03*
X50000D02*
D03*
Y50000D02*
D03*
Y60000D02*
D03*
Y70000D02*
D03*
D41*
X63000Y294000D02*
D03*
X70000Y305774D02*
D03*
X82781Y298173D02*
D03*
X76500Y279100D02*
D03*
X50500Y280000D02*
D03*
X49500Y305000D02*
D03*
X240000Y156676D02*
D03*
X178500Y197500D02*
D03*
X207041Y159831D02*
D03*
X206267Y147126D02*
D03*
X177353Y110027D02*
D03*
X140112Y97500D02*
D03*
X153100Y168700D02*
D03*
X159700Y142549D02*
D03*
X146520Y127918D02*
D03*
X170000Y154470D02*
D03*
X142500Y137500D02*
D03*
X137643Y143422D02*
D03*
X140000Y161793D02*
D03*
X165000Y203569D02*
D03*
X154872Y277500D02*
D03*
X164872D02*
D03*
X164372Y286342D02*
D03*
X154372D02*
D03*
X152500Y205000D02*
D03*
X150000Y192500D02*
D03*
D42*
X152959Y178578D02*
D03*
X136541Y169861D02*
D03*
X139700Y171600D02*
D03*
X139700Y174795D02*
D03*
X146063Y122000D02*
D03*
X138692Y106607D02*
D03*
X129900Y145300D02*
D03*
X132400Y165800D02*
D03*
X129900Y163800D02*
D03*
X147541Y181987D02*
D03*
X153113D02*
D03*
X167260Y164476D02*
D03*
X163500Y168700D02*
D03*
X163709Y165500D02*
D03*
X181259Y153051D02*
D03*
X154733Y120212D02*
D03*
X133700Y133800D02*
D03*
X119000Y150600D02*
D03*
X110256Y153341D02*
D03*
X159935Y169328D02*
D03*
X153100Y175200D02*
D03*
X160300Y172828D02*
D03*
X163319Y129319D02*
D03*
X237400Y282900D02*
D03*
X156950Y122950D02*
D03*
X159700Y129318D02*
D03*
Y125300D02*
D03*
X170466Y117239D02*
D03*
X166528Y115270D02*
D03*
X228600Y149000D02*
D03*
X195228Y156772D02*
D03*
X204800Y153051D02*
D03*
X179000Y143400D02*
D03*
X196200Y145400D02*
D03*
X181100Y146800D02*
D03*
X183900Y149200D02*
D03*
X170010Y181214D02*
D03*
X123700Y182600D02*
D03*
X117796Y128096D02*
D03*
X117602Y124953D02*
D03*
X117600Y121606D02*
D03*
D43*
X88100Y278800D02*
D03*
M02*
