G04*
G04 #@! TF.GenerationSoftware,Altium Limited,Altium Designer,21.0.8 (223)*
G04*
G04 Layer_Color=8421504*
%FSLAX25Y25*%
%MOIN*%
G70*
G04*
G04 #@! TF.SameCoordinates,DCFDD46B-96D2-4464-8150-C36015641F01*
G04*
G04*
G04 #@! TF.FilePolarity,Positive*
G04*
G01*
G75*
G04:AMPARAMS|DCode=15|XSize=23.62mil|YSize=39.37mil|CornerRadius=5.91mil|HoleSize=0mil|Usage=FLASHONLY|Rotation=180.000|XOffset=0mil|YOffset=0mil|HoleType=Round|Shape=RoundedRectangle|*
%AMROUNDEDRECTD15*
21,1,0.02362,0.02756,0,0,180.0*
21,1,0.01181,0.03937,0,0,180.0*
1,1,0.01181,-0.00591,0.01378*
1,1,0.01181,0.00591,0.01378*
1,1,0.01181,0.00591,-0.01378*
1,1,0.01181,-0.00591,-0.01378*
%
%ADD15ROUNDEDRECTD15*%
%ADD16R,0.04724X0.05512*%
G04:AMPARAMS|DCode=17|XSize=45.28mil|YSize=57.09mil|CornerRadius=11.32mil|HoleSize=0mil|Usage=FLASHONLY|Rotation=270.000|XOffset=0mil|YOffset=0mil|HoleType=Round|Shape=RoundedRectangle|*
%AMROUNDEDRECTD17*
21,1,0.04528,0.03445,0,0,270.0*
21,1,0.02264,0.05709,0,0,270.0*
1,1,0.02264,-0.01722,-0.01132*
1,1,0.02264,-0.01722,0.01132*
1,1,0.02264,0.01722,0.01132*
1,1,0.02264,0.01722,-0.01132*
%
%ADD17ROUNDEDRECTD17*%
%ADD18R,0.03937X0.04134*%
G04:AMPARAMS|DCode=19|XSize=11.81mil|YSize=55.12mil|CornerRadius=0mil|HoleSize=0mil|Usage=FLASHONLY|Rotation=225.000|XOffset=0mil|YOffset=0mil|HoleType=Round|Shape=Round|*
%AMOVALD19*
21,1,0.04331,0.01181,0.00000,0.00000,315.0*
1,1,0.01181,-0.01531,0.01531*
1,1,0.01181,0.01531,-0.01531*
%
%ADD19OVALD19*%

G04:AMPARAMS|DCode=20|XSize=11.81mil|YSize=55.12mil|CornerRadius=0mil|HoleSize=0mil|Usage=FLASHONLY|Rotation=135.000|XOffset=0mil|YOffset=0mil|HoleType=Round|Shape=Round|*
%AMOVALD20*
21,1,0.04331,0.01181,0.00000,0.00000,225.0*
1,1,0.01181,0.01531,0.01531*
1,1,0.01181,-0.01531,-0.01531*
%
%ADD20OVALD20*%

G04:AMPARAMS|DCode=21|XSize=31.5mil|YSize=29.53mil|CornerRadius=7.38mil|HoleSize=0mil|Usage=FLASHONLY|Rotation=270.000|XOffset=0mil|YOffset=0mil|HoleType=Round|Shape=RoundedRectangle|*
%AMROUNDEDRECTD21*
21,1,0.03150,0.01476,0,0,270.0*
21,1,0.01673,0.02953,0,0,270.0*
1,1,0.01476,-0.00738,-0.00837*
1,1,0.01476,-0.00738,0.00837*
1,1,0.01476,0.00738,0.00837*
1,1,0.01476,0.00738,-0.00837*
%
%ADD21ROUNDEDRECTD21*%
%ADD22R,0.03740X0.03543*%
D15*
X66740Y298173D02*
D03*
X63000D02*
D03*
X59260D02*
D03*
X66740Y289827D02*
D03*
X59260D02*
D03*
D16*
X222500Y159331D02*
D03*
X212500D02*
D03*
Y150669D02*
D03*
X222500D02*
D03*
D17*
X76000Y290457D02*
D03*
Y297543D02*
D03*
X50000D02*
D03*
Y290457D02*
D03*
D18*
X233000Y155953D02*
D03*
Y150047D02*
D03*
X116000Y185953D02*
D03*
Y180047D02*
D03*
X138000Y200000D02*
D03*
Y205906D02*
D03*
X179000Y183000D02*
D03*
Y188906D02*
D03*
X201000Y152953D02*
D03*
Y147047D02*
D03*
X172828Y105955D02*
D03*
Y111861D02*
D03*
X134900Y103153D02*
D03*
Y97247D02*
D03*
X113000Y119047D02*
D03*
Y124953D02*
D03*
D19*
X154733Y111861D02*
D03*
X156124Y113253D02*
D03*
X157517Y114645D02*
D03*
X158908Y116037D02*
D03*
X160300Y117429D02*
D03*
X161692Y118821D02*
D03*
X163084Y120212D02*
D03*
X164476Y121604D02*
D03*
X165868Y122996D02*
D03*
X167260Y124388D02*
D03*
X168652Y125780D02*
D03*
X170044Y127172D02*
D03*
X171436Y128564D02*
D03*
X172828Y129956D02*
D03*
X174220Y131348D02*
D03*
X175612Y132740D02*
D03*
X177004Y134132D02*
D03*
X178396Y135524D02*
D03*
X179788Y136916D02*
D03*
X181179Y138308D02*
D03*
X182571Y139700D02*
D03*
X183963Y141092D02*
D03*
X185355Y142483D02*
D03*
X186747Y143876D02*
D03*
X188139Y145267D02*
D03*
X145267Y188139D02*
D03*
X143876Y186747D02*
D03*
X142483Y185355D02*
D03*
X141092Y183963D02*
D03*
X139700Y182571D02*
D03*
X138308Y181179D02*
D03*
X136916Y179788D02*
D03*
X135524Y178396D02*
D03*
X134132Y177004D02*
D03*
X132740Y175612D02*
D03*
X131348Y174220D02*
D03*
X129956Y172828D02*
D03*
X128564Y171436D02*
D03*
X127172Y170044D02*
D03*
X125780Y168652D02*
D03*
X124388Y167260D02*
D03*
X122996Y165868D02*
D03*
X121604Y164476D02*
D03*
X120212Y163084D02*
D03*
X118821Y161692D02*
D03*
X117429Y160300D02*
D03*
X116037Y158908D02*
D03*
X114645Y157517D02*
D03*
X113253Y156124D02*
D03*
X111861Y154733D02*
D03*
D20*
X188139D02*
D03*
X186747Y156124D02*
D03*
X185355Y157517D02*
D03*
X183963Y158908D02*
D03*
X182571Y160300D02*
D03*
X181179Y161692D02*
D03*
X179788Y163084D02*
D03*
X178396Y164476D02*
D03*
X177004Y165868D02*
D03*
X175612Y167260D02*
D03*
X174220Y168652D02*
D03*
X172828Y170044D02*
D03*
X171436Y171436D02*
D03*
X170044Y172828D02*
D03*
X168652Y174220D02*
D03*
X167260Y175612D02*
D03*
X165868Y177004D02*
D03*
X164476Y178396D02*
D03*
X163084Y179788D02*
D03*
X161692Y181179D02*
D03*
X160300Y182571D02*
D03*
X158908Y183963D02*
D03*
X157517Y185355D02*
D03*
X156124Y186747D02*
D03*
X154733Y188139D02*
D03*
X111861Y145267D02*
D03*
X113253Y143876D02*
D03*
X114645Y142483D02*
D03*
X116037Y141092D02*
D03*
X117429Y139700D02*
D03*
X118821Y138308D02*
D03*
X120212Y136916D02*
D03*
X121604Y135524D02*
D03*
X122996Y134132D02*
D03*
X124388Y132740D02*
D03*
X125780Y131348D02*
D03*
X127172Y129956D02*
D03*
X128564Y128564D02*
D03*
X129956Y127172D02*
D03*
X131348Y125780D02*
D03*
X132740Y124388D02*
D03*
X134132Y122996D02*
D03*
X135524Y121604D02*
D03*
X136916Y120212D02*
D03*
X138308Y118821D02*
D03*
X139700Y117429D02*
D03*
X141092Y116037D02*
D03*
X142483Y114645D02*
D03*
X143876Y113253D02*
D03*
X145267Y111861D02*
D03*
D21*
X223600Y304274D02*
D03*
Y297974D02*
D03*
X242600Y304274D02*
D03*
Y297974D02*
D03*
D22*
X223600Y279974D02*
D03*
Y286274D02*
D03*
X242600Y280124D02*
D03*
Y286423D02*
D03*
M02*
