M48
;Layer_Color=9474304
;FILE_FORMAT=2:5
INCH,TZ
;TYPE=PLATED
T1F00S00C0.01181
T2F00S00C0.01968
T3F00S00C0.03937
T4F00S00C0.04000
%
T01
X140112Y97500
X138692Y106607
X146063Y122000
X146520Y127918
X142500Y137500
X137643Y143422
X129900Y145300
X133700Y133800
X117796Y128096
X117602Y124953
X117600Y121606
X119000Y150600
X110256Y153341
X129900Y163800
X132400Y165800
X136541Y169861
X139700Y171600
X139700Y174795
X140000Y161793
X153100Y168700
Y175200
X152959Y178578
X153113Y181987
X147541
X150000Y192500
X152500Y205000
X165000Y203569
X178500Y197500
X170010Y181214
X160300Y172828
X159935Y169328
X163500Y168700
X163709Y165500
X167260Y164476
X170000Y154470
X181259Y153051
X181100Y146800
X183900Y149200
X179000Y143400
X159700Y142549
Y129318
X163319Y129319
X159700Y125300
X156950Y122950
X154733Y120212
X166528Y115270
X170466Y117239
X177353Y110027
X123700Y182600
X195228Y156772
X196200Y145400
X206267Y147126
X204800Y153051
X207041Y159831
X228600Y149000
X240000Y156676
X237400Y282900
X164372Y286342
X164872Y277500
X154872
X154372Y286342
X82781Y298173
X70000Y305774
X63000Y294000
X49500Y305000
X50500Y280000
X76500Y279100
T02
X88100Y278800
T03
X200000Y40000
Y50000
X260000
Y40000
X270000
Y50000
X190000
Y40000
X180000
X170000
X160000
Y50000
X150000
X140000
X130000
X120000
X110000
Y40000
X120000
X130000
X140000
X150000
X170000Y50000
X180000
X50000
X40000
Y40000
X50000
Y60000
X40000
Y70000
Y80000
X50000
Y90000
Y100000
Y110000
Y120000
Y130000
X40000
Y120000
Y110000
Y100000
Y90000
X50000Y70000
Y170000
X40000
Y180000
Y190000
Y200000
X50000
Y190000
Y180000
X260000
Y170000
X270000
Y180000
Y190000
X260000
Y200000
X270000
Y130000
Y120000
Y110000
Y100000
Y90000
X260000
Y80000
Y70000
Y60000
X270000
Y70000
Y80000
X260000Y100000
Y110000
Y120000
Y130000
Y210000
Y220000
X270000
Y210000
Y230000
Y240000
Y250000
Y260000
X260000
Y250000
Y240000
Y230000
X50000
Y240000
Y250000
Y260000
X40000
Y250000
Y240000
Y230000
Y220000
X50000
Y210000
X40000
T04
X120000Y290000
Y300000
X130000
Y290000
X140000
Y300000
X150000
X160000
X170000
X180000
Y290000
X170000
X160000
X150000
M30
